<?xml version="1.0" encoding="utf-8"?>
<!-- Generator: Adobe Illustrator 22.1.0, SVG Export Plug-In . SVG Version: 6.00 Build 0)  -->
<svg version="1.1" id="Layer_1" xmlns="http://www.w3.org/2000/svg" xmlns:xlink="http://www.w3.org/1999/xlink" x="0px" y="0px"
	 viewBox="0 0 1075 237" style="enable-background:new 0 0 1075 237;" xml:space="preserve">
<style type="text/css">
	.st0{fill:#5C5C5C;}
	.st1{enable-background:new    ;}
	.st2{fill:#FFFFFF;}
	.st3{fill:#FF8E39;}
	.st4{fill:#F58C3E;}
	.st5{fill:#F37421;}
	.st6{fill:#CC6632;}
	.st7{fill:#E5E5E4;}
	.st8{fill:#B3B2B3;}
	.st9{fill:#808080;}
</style>
<g>
	<g>
		<g>
			<g>
				<path class="st0" d="M278.9,154c-1.7,0-3.2-0.3-4.4-0.9c-1.9-1-2.8-2.7-3.3-4l-16.7-44.5v49.3H227V79.6c0-4.3,2.7-7,6.8-7h33.1
					c3.9,0,6.9,2,8,5.4l16,46.6L307,78c0.5-1.6,1.5-2.8,2.8-3.9c1.3-1,3-1.5,5.1-1.5h32.7c4.1,0,6.8,2.7,6.8,7v74.3h-27.4v-49.1
					l-16.6,44.2c-0.7,1.9-1.9,3.4-3.4,4.1c-1.2,0.6-2.7,0.9-4.3,0.9H278.9z"/>
				<path class="st0" d="M357.7,176.6v-23.4h43.2c1.5,0,2.3-0.3,2.5-0.5c0.4-0.5,0.6-1.6,0.6-2.9v-0.4h-22.1c-9.4,0-16-2-20.3-6.1
					c-4.2-4.1-6.3-10.1-6.3-18.1V90.6h26.3v32.2c0,2.2,0.4,3.2,0.6,3.4c0.1,0.1,1.1,0.5,3.1,0.5H404V90.6h26.3V151
					c0,3.7-0.5,7-1.4,10c-1,3.3-2.5,6-4.7,8.3c-2,2.2-4.7,4-8.4,5.4l-0.2,0.1c-3.5,1.2-7.5,1.8-12,1.8H357.7z"/>
			</g>
			<g>
				<path class="st0" d="M464.8,153.9c-5.9,0-11.1-0.8-15.3-2.3c-4.5-1.6-8-3.9-10.8-6.8c-2.8-2.9-4.9-6.6-6.1-10.9
					c-1.2-3.9-1.8-8.2-1.8-13.1v-15.1c0-5,0.6-9.3,1.8-13.2c1.2-4.1,3.2-7.6,5.9-10.7c2.9-3.1,6.6-5.4,11-6.9
					c4.2-1.5,9.3-2.3,15.2-2.3h54.9c4.1,0,6.9,2.8,6.9,7v21.8l-22.6,8.4h-5.5V98.9h-31.9c-4.1,0-5.3,1-5.6,1.2
					c-0.3,0.4-1.4,1.9-1.4,6.6V119c0,4.3,0.9,6,1.4,6.5c0.3,0.3,1.5,1.4,5.6,1.4h58.9v27H464.8z"/>
				<path class="st0" d="M576.2,153.9v-36.1c0-2.5-0.5-3.6-0.7-3.8l-0.1-0.1c-0.6-0.6-1.9-0.7-3-0.7H553v40.7h-26.2l-0.1-86.6h26.2
					v23.3h22.9c4.7,0,8.6,0.6,11.9,1.8c3.4,1.2,6.3,3,8.5,5.4c2.2,2.4,3.9,5.2,4.8,8.5c0.9,3.1,1.4,6.4,1.4,10.2v37.3H576.2z"/>
				<path class="st0" d="M629,153.9c-4.7,0-8.6-0.6-11.8-1.8c-3.4-1.2-6.2-3-8.5-5.4c-2.2-2.4-3.9-5.2-4.8-8.5
					c-0.9-3.1-1.4-6.4-1.4-10.2v-11.4c0-3.8,0.4-7.1,1.4-10.2c1-3.3,2.6-6.2,4.8-8.5c2.3-2.4,5.2-4.3,8.6-5.4
					c3.5-1.2,7.4-1.8,11.7-1.8h31.9c5.4,0,9.4,1.6,12.1,4.7l0.1,0.1c2.4,3,3.6,7.1,3.6,12.7v5.3c0,4.9-1.1,8.9-3.5,12.1
					c-2.6,3.5-6.8,5.3-12.3,5.3h-31.5c0,0,0,0,0,0c0,0,0,0,0,0c0,0,0.7,0.5,3,0.5h43.4v22.7H629z M651.6,112.6L651.6,112.6z
					 M651.6,111.6v-0.3h-19.3c-1.3,0-2.1,0.2-2.5,0.3H651.6z"/>
				<path class="st0" d="M765.6,153.9v-36.2c0-2.5-0.5-3.7-0.6-3.9c-0.3-0.3-1.3-0.7-3-0.7h-12.3c0.1,1.1,0.2,2.3,0.2,3.5v37.3
					h-26.2v-36.2c0-2.5-0.5-3.7-0.6-3.9c-0.3-0.3-1.3-0.7-3-0.7h-17.2v40.7h-26.2V90.6h46.8c3.7,0,6.8,0.4,9.5,1.2v-1.2h32.2
					c4.7,0,8.6,0.6,11.9,1.8c3.4,1.2,6.3,3,8.5,5.4c2.2,2.4,3.9,5.2,4.8,8.5c0.9,3.1,1.4,6.4,1.4,10.2v37.3H765.6z"/>
			</g>
			<g>
				<rect x="792.7" y="129.2" class="st0" width="26.2" height="24.7"/>
				<path class="st0" d="M820.3,153.9V90.6h26.2v63.3H820.3z M820.3,89.9V67.3h26.2v22.6H820.3z"/>
				<path class="st0" d="M897.3,153.9v-36.1c0-2.5-0.5-3.7-0.6-3.9l-0.1-0.1c-0.2-0.2-1.1-0.6-3-0.6h-19.4v40.7H848V90.6h48.9
					c4.7,0,8.6,0.6,11.9,1.8c3.4,1.2,6.3,3,8.5,5.4c2.2,2.4,3.9,5.2,4.8,8.5c0.9,3.1,1.4,6.4,1.4,10.2v37.3H897.3z"/>
				<path class="st0" d="M929.4,153.9v-41.4h-6.3l-6-16.4v-5.5h12.3V88c0-3.9,0.4-6.9,1.2-9.4c1-2.9,2.5-5.2,4.7-6.9
					c2.1-1.7,4.8-2.9,7.9-3.5c3-0.6,6.5-0.9,10.4-0.9h10.9l6.2,15.6v5.7H956c-0.1,0-0.2,0-0.3,0c0,0.3-0.1,0.6-0.1,1.1v0.9h16.1
					v21.9h-16.1v41.4H929.4z"/>
				<path class="st0" d="M994.3,153.9c-4.7,0-8.6-0.6-11.8-1.8c-3.4-1.2-6.2-3-8.5-5.4c-2.2-2.4-3.9-5.2-4.8-8.5
					c-0.9-3.1-1.4-6.4-1.4-10.2v-11.4c0-3.7,0.5-7.1,1.4-10.1c1-3.3,2.6-6.2,4.8-8.5c2.3-2.4,5.2-4.3,8.6-5.4
					c3.5-1.2,7.4-1.8,11.7-1.8h26.6c4.7,0,8.6,0.6,11.9,1.8c3.4,1.2,6.3,3,8.5,5.4c2.2,2.4,3.9,5.2,4.8,8.5
					c0.9,3.1,1.4,6.5,1.4,10.1v11.4c0,3.8-0.4,7.1-1.4,10.2c-1,3.3-2.6,6.2-4.8,8.5c-2.2,2.3-5.2,4.2-8.6,5.4
					c-3.5,1.2-7.5,1.8-11.8,1.8H994.3z M994.6,129.2c0,0,0.8,0.5,3.1,0.5l19.9-0.1c2.5,0,3.2-0.5,3.2-0.5c0.1-0.2,0.5-1.2,0.5-3.6
					v-7.8c0-3.2-0.6-4-0.6-4c-0.2-0.2-1.2-0.6-3.2-0.6h-19.8c-2.4,0-3,0.5-3,0.5l-0.1,0.1c-0.2,0.2-0.6,1.4-0.6,4.1v7.8
					C994,128.4,994.5,129.2,994.6,129.2C994.6,129.2,994.6,129.2,994.6,129.2z"/>
			</g>
		</g>
		<g>
			<g class="st1">
				<path class="st2" d="M331.1,149.9V94.8c0-1.1-0.5-1.6-1.5-1.6h-1.1c-0.9,0-1.5,0.4-1.8,1.3l-20,53.1c-0.3,0.9-0.8,1.6-1.4,1.9
					s-1.4,0.5-2.5,0.5h-23.9c-1.1,0-2-0.2-2.6-0.5s-1-0.9-1.4-1.9L255,94.5c-0.3-0.9-1-1.3-1.9-1.3h-1c-1.1,0-1.6,0.5-1.6,1.6v55.1
					H231V79.6c0-2,0.9-3,2.8-3h33.1c2.1,0,3.6,0.9,4.2,2.7l18,52.4c0.1,0.4,0.4,0.6,1,0.6h1.8c0.4,0,0.7-0.2,0.8-0.6l18.1-52.4
					c0.3-0.9,0.8-1.5,1.5-2c0.6-0.5,1.5-0.7,2.7-0.7h32.7c1.9,0,2.8,1,2.8,3v70.3H331.1z"/>
				<path class="st2" d="M407.3,143.3h0.7V94.6h18.3V151c0,3.2-0.4,6.2-1.2,8.8c-0.8,2.7-2,4.9-3.8,6.8c-1.7,1.9-4.1,3.3-6.9,4.4
					c-2.9,1-6.4,1.6-10.7,1.6h-42v-15.4h39.2c2.6,0,4.4-0.6,5.5-1.8c1-1.2,1.6-3,1.6-5.6v-4.4h-26.1c-8.3,0-14.1-1.7-17.5-5
					s-5.1-8.4-5.1-15.2V94.6h18.3v28.2c0,3,0.6,5.1,1.7,6.2c1.1,1.1,3.2,1.7,6,1.7h17L407.3,143.3z"/>
			</g>
			<g class="st1">
				<path class="st3" d="M503.3,105.8h-0.8v-9.9c0-0.7-0.3-1-0.9-1h-35c-4,0-6.9,0.8-8.5,2.5s-2.5,4.8-2.5,9.3V119
					c0,4.4,0.8,7.4,2.4,9.2c1.6,1.8,4.5,2.7,8.6,2.7h54.9v19h-56.7c-5.4,0-10.1-0.7-13.9-2.1c-3.8-1.4-6.9-3.3-9.3-5.8
					s-4.1-5.6-5.1-9.2c-1.1-3.6-1.6-7.6-1.6-12v-15.1c0-4.4,0.5-8.4,1.6-12s2.8-6.6,5.1-9.2c2.3-2.5,5.4-4.5,9.3-5.8
					c3.8-1.4,8.5-2.1,13.9-2.1h54.9c1.9,0,2.9,1,2.9,3v19L503.3,105.8z"/>
				<path class="st3" d="M530.7,71.3h18.2v23.3h26.9c4.1,0,7.6,0.5,10.5,1.6c2.9,1,5.2,2.5,7,4.4s3.1,4.2,3.9,6.9
					c0.8,2.7,1.2,5.7,1.2,9.1v33.3h-18.2v-32.1c0-3.2-0.7-5.5-2-6.7c-1.3-1.3-3.2-1.9-5.8-1.9h-19.7l-3-8.1H549v48.8h-18.2
					L530.7,71.3L530.7,71.3z"/>
				<path class="st3" d="M625.5,118.3h-0.7v8.6c0,3.2,0.5,5.3,1.6,6.5s3.1,1.8,6,1.8h39.4v14.7H629c-4.1,0-7.6-0.5-10.4-1.6
					c-2.9-1-5.2-2.5-7-4.4s-3.1-4.2-3.9-6.9c-0.8-2.7-1.2-5.7-1.2-9.1v-11.4c0-3.4,0.4-6.4,1.2-9.1s2.1-5,3.9-6.9s4.1-3.4,7-4.4
					s6.3-1.6,10.4-1.6h31.9c4.2,0,7.2,1.1,9.1,3.3c1.8,2.2,2.7,5.6,2.7,10.2v5.3c0,4.1-0.9,7.3-2.7,9.8c-1.8,2.4-4.8,3.6-9.1,3.6
					h-32.3L625.5,118.3z M624.7,115.6h27.8c2.1,0,3.1-1.1,3.1-3.2v-2c0-1.1-0.3-1.9-0.8-2.4s-1.3-0.7-2.4-0.7h-20.1
					c-2.8,0-4.8,0.6-5.9,1.8c-1.1,1.2-1.7,3.3-1.7,6.3L624.7,115.6L624.7,115.6z"/>
				<path class="st3" d="M736.7,94.6h28.5c4.1,0,7.6,0.5,10.5,1.6c2.9,1,5.2,2.5,7,4.4s3.1,4.2,3.9,6.9c0.8,2.7,1.2,5.7,1.2,9.1
					v33.3h-18.2v-32.2c0-3.2-0.6-5.5-1.8-6.7s-3.2-1.9-5.8-1.9h-17.1c0.7,2.1,1,4.6,1,7.5v33.3h-18.2v-32.2c0-3.2-0.6-5.5-1.8-6.7
					s-3.2-1.9-5.8-1.9h-17.5l-3-8.1h-0.7v48.8h-18.2V94.6h42.8c4,0,7.2,0.5,9.9,1.6c2.6,1,4.9,2.5,6.7,4.3l0.4-0.3
					c-0.6-0.7-1.2-1.5-1.8-2.3s-1.2-1.6-1.7-2.5v-0.8C737,94.6,736.7,94.6,736.7,94.6z"/>
			</g>
			<g class="st1">
				<path class="st2" d="M796.7,149.9v-16.7h18.2v16.7H796.7z"/>
				<path class="st2" d="M824.3,85.9V71.3h18.2v14.6H824.3z M824.3,149.9V94.6h18.2v55.3H824.3z"/>
				<path class="st2" d="M851.8,94.6h45.1c4.1,0,7.6,0.5,10.5,1.6c2.9,1,5.2,2.5,7,4.4s3.1,4.2,3.9,6.9c0.8,2.7,1.2,5.7,1.2,9.1
					v33.3h-18.2v-32.1c0-3.2-0.6-5.5-1.8-6.7c-1.2-1.3-3.2-1.9-5.9-1.9h-19.7l-3-8.1h-0.7v48.8H852V94.6H851.8z"/>
				<path class="st2" d="M967.7,108.5h-16.1v41.4h-18.2v-41.4h-7.5l-4.8-13.1v-0.8h12.3V88c0-3.3,0.3-6,1-8.1s1.8-3.8,3.4-5.1
					c1.6-1.3,3.7-2.2,6.2-2.7c2.6-0.5,5.8-0.8,9.6-0.8h8.2l4.9,12.4v0.9H956c-1.7,0-2.9,0.4-3.5,1.2c-0.6,0.8-0.9,2.1-0.9,3.9v4.9
					h16.1L967.7,108.5L967.7,108.5z"/>
				<path class="st2" d="M1043.5,127.9c0,3.4-0.4,6.4-1.2,9.1c-0.8,2.7-2.1,5-3.9,6.9s-4.2,3.4-7,4.4c-2.9,1-6.4,1.6-10.5,1.6h-26.6
					c-4.1,0-7.6-0.5-10.4-1.6c-2.9-1-5.2-2.5-7-4.4s-3.1-4.2-3.9-6.9c-0.8-2.7-1.2-5.7-1.2-9.1v-11.4c0-3.3,0.4-6.3,1.2-9
					s2.1-5,3.9-6.9s4.1-3.4,7-4.4s6.3-1.6,10.4-1.6h26.6c4.1,0,7.6,0.5,10.5,1.6c2.9,1,5.2,2.5,7,4.4s3.1,4.2,3.9,6.9s1.2,5.7,1.2,9
					V127.9z M1017.6,133.6c2.9,0,4.9-0.6,6-1.7c1.1-1.1,1.7-3.3,1.7-6.4v-7.8c0-3.4-0.6-5.6-1.8-6.8c-1.2-1.2-3.2-1.8-6-1.8h-19.8
					c-2.9,0-4.9,0.6-6,1.9c-1.1,1.2-1.7,3.5-1.7,6.8v7.8c0,3.2,0.6,5.3,1.7,6.4c1.1,1.1,3.1,1.7,6,1.7L1017.6,133.6L1017.6,133.6z"
					/>
			</g>
		</g>
	</g>
</g>
<g>
	<g>
		<g>
			<g>
				<g>
					<path class="st0" d="M128.7,151.9c-1.4,0-2.6-0.7-3.3-1.9l-18-31.2c-0.7-1.2-0.7-2.6,0-3.8l18-31.2c1.4-2.4,5.2-2.4,6.6,0
						l18,31.2c0.7,1.2,0.7,2.6,0,3.8L132,150C131.3,151.2,130,151.9,128.7,151.9z M115,116.9l13.6,23.6l13.6-23.6l-13.6-23.6
						L115,116.9z"/>
				</g>
				<g>
					<path class="st0" d="M110.6,120.7h-36c-1.4,0-2.6-0.7-3.3-1.9c-0.7-1.2-0.7-2.6,0-3.8l18-31.2c0.7-1.2,1.9-1.9,3.3-1.9h36.1
						c1.4,0,2.6,0.7,3.3,1.9c0.7,1.2,0.7,2.6,0,3.8l-18,31.2C113.3,120,112,120.7,110.6,120.7z M81.2,113.1h27.2L122,89.5H94.8
						L81.2,113.1z"/>
				</g>
				<g>
					<path class="st0" d="M128.7,151.9H92.6c-1.4,0-2.6-0.7-3.3-1.9l-18-31.2c-0.7-1.2-0.7-2.6,0-3.8c0.7-1.2,1.9-1.9,3.3-1.9h36.1
						c1.4,0,2.6,0.7,3.3,1.9l18,31.2c0.7,1.2,0.7,2.6,0,3.8S130,151.9,128.7,151.9z M94.8,144.3H122l-13.6-23.6H81.2L94.8,144.3z"/>
				</g>
			</g>
			<g>
				<g>
					<path class="st0" d="M128.7,89.5c-1.4,0-2.6-0.7-3.3-1.9l-18-31.2c-0.7-1.2-0.7-2.6,0-3.8l18-31.2c1.4-2.4,5.2-2.4,6.6,0
						l18,31.2c0.7,1.2,0.7,2.6,0,3.8l-18,31.2C131.3,88.8,130,89.5,128.7,89.5z M115,54.4L128.7,78l13.6-23.6l-13.6-23.6L115,54.4z"
						/>
				</g>
				<g>
					<path class="st0" d="M110.6,58.3h-36c-1.4,0-2.6-0.7-3.3-1.9c-0.7-1.2-0.7-2.6,0-3.8l18-31.2c0.7-1.2,1.9-1.9,3.3-1.9h36.1
						c1.4,0,2.6,0.7,3.3,1.9c0.7,1.2,0.7,2.6,0,3.8l-18,31.2C113.3,57.5,112,58.3,110.6,58.3z M81.2,50.6h27.2L122.1,27H94.8
						L81.2,50.6z"/>
				</g>
				<g>
					<path class="st0" d="M128.7,89.5H92.6c-1.4,0-2.6-0.7-3.3-1.9l-18-31.2c-0.7-1.2-0.7-2.6,0-3.8s1.9-1.9,3.3-1.9h36.1
						c1.4,0,2.6,0.7,3.3,1.9l18,31.2c0.7,1.2,0.7,2.6,0,3.8C131.3,88.8,130,89.5,128.7,89.5z M94.8,81.9H122l-13.6-23.6H81.2
						L94.8,81.9z"/>
				</g>
			</g>
			<g>
				<g>
					<path class="st0" d="M182.8,183.2L182.8,183.2c-1.4,0-2.6-0.7-3.3-1.9l-18-31.2c-0.7-1.2-0.7-2.6,0-3.8l18-31.2
						c1.4-2.4,5.2-2.4,6.6,0l18,31.2c0.7,1.2,0.7,2.6,0,3.8l-18,31.2C185.4,182.4,184.1,183.2,182.8,183.2z M169.1,148.1l13.6,23.6
						l13.6-23.6l-13.6-23.6L169.1,148.1z"/>
				</g>
				<g>
					<path class="st0" d="M164.7,151.9h-36.1c-1.4,0-2.6-0.7-3.3-1.9c-0.7-1.2-0.7-2.6,0-3.8l18-31.2c0.7-1.2,1.9-1.9,3.3-1.9h36.1
						c1.4,0,2.6,0.7,3.3,1.9c0.7,1.2,0.7,2.6,0,3.8L168,150C167.3,151.2,166.1,151.9,164.7,151.9z M135.3,144.3h27.2l13.6-23.6
						h-27.2L135.3,144.3z"/>
				</g>
				<g>
					<path class="st0" d="M182.8,183.2h-36.1c-1.4,0-2.6-0.7-3.3-1.9l-18-31.2c-0.7-1.2-0.7-2.6,0-3.8s1.9-1.9,3.3-1.9h36.1
						c1.4,0,2.6,0.7,3.3,1.9l18,31.2c0.7,1.2,0.7,2.6,0,3.8C185.4,182.4,184.1,183.2,182.8,183.2z M148.9,175.5h27.2l-13.6-23.6
						h-27.2L148.9,175.5z"/>
				</g>
			</g>
			<g>
				<g>
					<path class="st0" d="M182.8,120.7c-1.4,0-2.6-0.7-3.3-1.9l-18-31.2c-0.7-1.2-0.7-2.6,0-3.8l18-31.2c1.4-2.4,5.2-2.4,6.6,0
						l18,31.2c0.7,1.2,0.7,2.6,0,3.8l-18,31.2C185.4,120,184.1,120.7,182.8,120.7z M169.1,85.7l13.6,23.6l13.6-23.6l-13.6-23.6
						L169.1,85.7z"/>
				</g>
				<g>
					<path class="st0" d="M164.7,89.5h-36.1c-1.4,0-2.6-0.7-3.3-1.9c-0.7-1.2-0.7-2.6,0-3.8l18-31.2c0.7-1.2,1.9-1.9,3.3-1.9h36.1
						c1.4,0,2.6,0.7,3.3,1.9s0.7,2.6,0,3.8l-18,31.2C167.3,88.8,166.1,89.5,164.7,89.5z M135.3,81.9h27.2l13.6-23.6h-27.2
						L135.3,81.9z"/>
				</g>
				<g>
					<path class="st0" d="M182.8,120.7h-36.1c-1.4,0-2.6-0.7-3.3-1.9l-18-31.2c-0.7-1.2-0.7-2.6,0-3.8c0.7-1.2,1.9-1.9,3.3-1.9h36.1
						c1.4,0,2.6,0.7,3.3,1.9l18,31.2c0.7,1.2,0.7,2.6,0,3.8C185.4,120,184.1,120.7,182.8,120.7z M148.9,113.1h27.2l-13.6-23.6h-27.2
						L148.9,113.1z"/>
				</g>
			</g>
			<g>
				<g>
					<path class="st0" d="M74.7,183.2L74.7,183.2c-1.4,0-2.6-0.7-3.3-1.9l-18-31.2c-0.7-1.2-0.7-2.6,0-3.8l18-31.2
						c1.4-2.4,5.2-2.4,6.6,0l18,31.2c0.7,1.2,0.7,2.6,0,3.8l-18,31.2C77.3,182.4,76.1,183.2,74.7,183.2z M61.1,148.1l13.6,23.6
						l13.6-23.6l-13.6-23.6L61.1,148.1z"/>
				</g>
				<g>
					<path class="st0" d="M56.7,151.9H20.6c-1.4,0-2.6-0.7-3.3-1.9c-0.7-1.2-0.7-2.6,0-3.8l18-31.2c0.7-1.2,1.9-1.9,3.3-1.9h36.1
						c1.4,0,2.6,0.7,3.3,1.9c0.7,1.2,0.7,2.6,0,3.8L60,150C59.3,151.2,58,151.9,56.7,151.9z M27.2,144.3h27.2L68,120.7H40.9
						L27.2,144.3z"/>
				</g>
				<g>
					<path class="st0" d="M74.7,183.2h-36c-1.4,0-2.6-0.7-3.3-1.9l-18-31.2c-0.7-1.2-0.7-2.6,0-3.8s1.9-1.9,3.3-1.9h36.1
						c1.4,0,2.6,0.7,3.3,1.9l18,31.2c0.7,1.2,0.7,2.6,0,3.8C77.3,182.4,76.1,183.2,74.7,183.2z M40.9,175.5h27.2l-13.6-23.6H27.2
						L40.9,175.5z"/>
				</g>
			</g>
			<g>
				<g>
					<path class="st0" d="M74.7,120.7c-1.4,0-2.6-0.7-3.3-1.9l-18-31.2c-0.7-1.2-0.7-2.6,0-3.8l18-31.2c1.4-2.4,5.2-2.4,6.6,0
						l18,31.2c0.7,1.2,0.7,2.6,0,3.8l-18,31.2C77.3,120,76.1,120.7,74.7,120.7z M61.1,85.7l13.6,23.6l13.6-23.6L74.7,62.1L61.1,85.7
						z"/>
				</g>
				<g>
					<path class="st0" d="M56.7,89.5H20.6c-1.4,0-2.6-0.7-3.3-1.9c-0.7-1.2-0.7-2.6,0-3.8l18-31.2c0.7-1.2,1.9-1.9,3.3-1.9h36.1
						c1.4,0,2.6,0.7,3.3,1.9c0.7,1.2,0.7,2.6,0,3.8L60,87.6C59.3,88.8,58,89.5,56.7,89.5z M27.2,81.9h27.2L68,58.3H40.9L27.2,81.9z"
						/>
				</g>
				<g>
					<path class="st0" d="M74.7,120.7h-36c-1.4,0-2.6-0.7-3.3-1.9l-18-31.2c-0.7-1.2-0.7-2.6,0-3.8c0.7-1.2,1.9-1.9,3.3-1.9h36.1
						c1.4,0,2.6,0.7,3.3,1.9L78,115c0.7,1.2,0.7,2.6,0,3.8C77.3,120,76.1,120.7,74.7,120.7z M40.9,113.1h27.2L54.5,89.5H27.2
						L40.9,113.1z"/>
				</g>
			</g>
			<g>
				<g>
					<path class="st0" d="M128.7,214.4c-1.4,0-2.6-0.7-3.3-1.9l-18-31.2c-0.7-1.2-0.7-2.6,0-3.8l18-31.2c1.4-2.4,5.2-2.4,6.6,0
						l18,31.2c0.7,1.2,0.7,2.6,0,3.8l-18,31.2C131.3,213.7,130,214.4,128.7,214.4z M115,179.4l13.6,23.6l13.6-23.6l-13.6-23.6
						L115,179.4z"/>
				</g>
				<g>
					<path class="st0" d="M110.6,183.2h-36c-1.4,0-2.6-0.7-3.3-1.9c-0.7-1.2-0.7-2.6,0-3.8l18-31.2c0.7-1.2,1.9-1.9,3.3-1.9h36.1
						c1.4,0,2.6,0.7,3.3,1.9s0.7,2.6,0,3.8l-18,31.2C113.3,182.4,112,183.2,110.6,183.2z M81.2,175.5h27.2l13.6-23.6H94.8
						L81.2,175.5z"/>
				</g>
				<g>
					<path class="st0" d="M128.7,214.4H92.6c-1.4,0-2.6-0.7-3.3-1.9l-18-31.2c-0.7-1.2-0.7-2.6,0-3.8s1.9-1.9,3.3-1.9h36.1
						c1.4,0,2.6,0.7,3.3,1.9l18,31.2c0.7,1.2,0.7,2.6,0,3.8S130,214.4,128.7,214.4z M94.8,206.8H122l-13.6-23.6H81.2L94.8,206.8z"/>
				</g>
			</g>
		</g>
		<g>
			<g>
				<g>
					<polygon class="st4" points="128.7,85.7 110.6,116.9 128.7,148.1 146.7,116.9 					"/>
				</g>
				<g>
					<polygon class="st5" points="92.6,85.7 74.6,116.9 110.6,116.9 128.7,85.7 					"/>
				</g>
				<g>
					<polygon class="st6" points="74.6,116.9 110.6,116.9 128.7,148.1 92.6,148.1 					"/>
				</g>
			</g>
			<g>
				<g>
					<polygon class="st7" points="128.7,23.2 110.6,54.4 128.7,85.7 146.7,54.4 					"/>
				</g>
				<g>
					<polygon class="st8" points="92.6,23.2 74.6,54.4 110.6,54.4 128.7,23.2 					"/>
				</g>
				<g>
					<polygon class="st9" points="74.6,54.4 110.6,54.4 128.7,85.7 92.6,85.7 					"/>
				</g>
			</g>
			<g>
				<g>
					<polygon class="st7" points="182.8,116.9 164.7,148.1 182.8,179.4 200.8,148.1 					"/>
				</g>
				<g>
					<polygon class="st8" points="146.7,116.9 128.7,148.1 164.7,148.1 182.8,116.9 					"/>
				</g>
				<g>
					<polygon class="st9" points="128.7,148.1 164.7,148.1 182.8,179.4 146.7,179.4 					"/>
				</g>
			</g>
			<g>
				<g>
					<polygon class="st7" points="182.8,54.4 164.7,85.7 182.8,116.9 200.8,85.7 					"/>
				</g>
				<g>
					<polygon class="st8" points="146.7,54.4 128.7,85.7 164.7,85.7 182.8,54.4 					"/>
				</g>
				<g>
					<polygon class="st9" points="128.7,85.7 164.7,85.7 182.8,116.9 146.7,116.9 					"/>
				</g>
			</g>
			<g>
				<g>
					<polygon class="st4" points="74.7,116.9 56.7,148.1 74.7,179.4 92.7,148.1 					"/>
				</g>
				<g>
					<polygon class="st5" points="38.7,116.9 20.6,148.1 56.7,148.1 74.7,116.9 					"/>
				</g>
				<g>
					<polygon class="st6" points="20.6,148.1 56.7,148.1 74.7,179.4 38.7,179.4 					"/>
				</g>
			</g>
			<g>
				<g>
					<polygon class="st4" points="74.7,54.4 56.7,85.7 74.7,116.9 92.7,85.7 					"/>
				</g>
				<g>
					<polygon class="st5" points="38.7,54.4 20.6,85.7 56.7,85.7 74.7,54.4 					"/>
				</g>
				<g>
					<polygon class="st6" points="20.6,85.7 56.7,85.7 74.7,116.9 38.7,116.9 					"/>
				</g>
			</g>
			<g>
				<g>
					<polygon class="st7" points="128.7,148.1 110.6,179.4 128.7,210.6 146.7,179.4 					"/>
				</g>
				<g>
					<polygon class="st8" points="92.6,148.1 74.6,179.4 110.6,179.4 128.7,148.1 					"/>
				</g>
				<g>
					<polygon class="st9" points="74.6,179.4 110.6,179.4 128.7,210.6 92.6,210.6 					"/>
				</g>
			</g>
		</g>
	</g>
</g>
</svg>
