<?xml version="1.0" encoding="utf-8"?>
<!-- Generator: Adobe Illustrator 22.1.0, SVG Export Plug-In . SVG Version: 6.00 Build 0)  -->
<svg version="1.1" id="Layer_1" xmlns="http://www.w3.org/2000/svg" xmlns:xlink="http://www.w3.org/1999/xlink" x="0px" y="0px"
	 viewBox="0 0 1288.6 237" style="enable-background:new 0 0 1288.6 237;" xml:space="preserve">
<style type="text/css">
	.st0{display:none;}
	.st1{display:inline;}
	.st2{fill:#494949;}
	.st3{fill:#FFFFFF;}
	.st4{fill:#85D958;}
	.st5{fill:#67CF2E;}
	.st6{fill:#40B307;}
	.st7{fill:#E5E5E4;}
	.st8{fill:#B3B2B3;}
	.st9{fill:#808080;}
</style>
<g>
	<g>
		<g>
			<g>
				<g class="st0">
					<g class="st1">
						<path class="st2" d="M340.9,127.8l-9.2,25c-1.3,3.4-3.3,5.8-6.1,7.3c-2.5,1.4-5.1,1.6-7.2,1.6h-27c-2.7,0-4.9-0.4-6.8-1.4
							c-4.2-1.9-5.9-5.7-6.4-7l-0.4-0.9v-0.2l-8.8-24v33.6h-41V71c0-7.7,5.2-13,12.7-13h37.4c6.4,0,11.4,3.4,13.6,9.2l13.5,40.2
							l13.5-40l0-0.1c1.1-2.7,2.6-4.8,4.6-6.4l0.6-0.5l0.1-0.1c2.4-1.5,5.2-2.3,8.1-2.3h37c7.5,0,12.7,5.3,12.7,13v90.7l-41,0.1
							V127.8z M363.1,142.7V76.9h-27.4l-19.3,56.9c-1.3,4.5-5.3,7.5-10,7.5h-2.1c-4.8,0-8.9-3-10.2-7.5L275,77h-28l-0.1,65.7h3V88.5
							c0-6.4,4.9-11.3,11.3-11.3h1.1c5,0,9.2,2.9,11,7.6l0.3,0.7v0.1l20.9,57h20.7l21.3-57.8c1.8-4.7,6-7.6,11-7.6h1.2
							c6.4,0,11.3,4.9,11.3,11.3v54.2H363.1z"/>
					</g>
					<g class="st1">
						<path class="st2" d="M375.7,187.8V151h9.6c-1.5-1-2.8-2-4.1-3.3c-5.8-5.8-8.6-13.7-8.6-24.2V78.8h39.7v41.7h15.4V78.8h39.7
							v74.7c0,4.6-0.6,8.9-1.8,12.8c-1.2,4.3-3.4,8.2-6.2,11.4c-3,3.5-7,6.1-11.8,7.7c-4.1,1.5-9.2,2.3-15,2.3H375.7z M446.8,151.9
							c0,5.2-1.3,9.4-3.9,12.6c-1.2,1.4-3,2.9-5.5,4c1.5-0.2,2.9-0.5,4.1-1c1.7-0.6,3-1.3,4-2.4c0.9-1.1,1.7-2.6,2.1-4.1
							c0.7-2.2,1-4.7,1-7.6V97.8h-1.7V151.9z M391.6,123.5c0,5.2,1,8.7,3,10.8c0.6,0.6,2.2,1.7,5.9,2.4c-0.9-0.6-1.7-1.2-2.4-2
							c-3.1-3.1-4.7-7.7-4.7-13.8V97.8h-1.8V123.5z"/>
					</g>
					<g class="st1">
						<path class="st2" d="M510.4,161.6c-3.4,0-6-0.8-8.2-2.3c-1.8-1.3-3.3-2.9-4.5-5.1l-0.2-0.4l-42.1-83.3V58h43.1l26.7,55.9
							l27-55.9h42.6v12.7l-42.5,83c-1.4,2.9-3.3,5-5.7,6.3c-2.6,1.5-5.3,1.7-7.3,1.7H510.4z M536.6,142.6L570.2,77H564l-28.2,58.3
							c-1.9,3.9-5.7,6.3-10.1,6.3h-1.3c-4.4,0-8.2-2.3-10.1-6.3L486.4,77h-6.7l33.2,65.6H536.6z"/>
					</g>
					<g class="st1">
						<path class="st2" d="M595.7,161.7c-3.2,0-6-0.4-8.7-1.2l-0.5-0.1c-3.4-1.1-6.5-3.2-8.7-6c-2.3-2.8-3.8-5.9-4.7-9.2
							c-0.9-3.1-1.3-6.6-1.3-11v-4.8c0-6.5,1.2-11.8,3.7-15.9h-2.1V78.8h67.5c6.9,0,12.6,2.4,16.4,6.9c3.4,4.1,5.1,9.6,5.1,16.2
							v47.5c0,7.1-5.1,12.3-12.2,12.3H595.7z M643.4,142.7v-40.8c0-2.3-0.4-3.4-0.7-3.9c-0.2-0.1-0.8-0.2-1.7-0.2h-4.1
							c0.5,0.4,1,0.9,1.4,1.4c2.3,2.7,3.4,6,3.4,10v6.5l0.1,4V135c0,3-1.2,5.7-3.1,7.7H643.4z M592.7,142.4c0.8,0.2,1.7,0.3,3,0.3
							h0.6c-0.6-0.5-1.1-1.1-1.5-1.6c-1.8-2.3-2.8-5.3-2.8-8.9v-2.8c0-2.7,0.5-5,1.6-7c-1.1,0.2-1.4,0.6-1.6,0.8l-0.2,0.2
							c-0.2,0.3-1,1.8-1,6.1v4.8c0,2.5,0.1,4.2,0.5,5.5l0.1,0.3l0.1,0.5c0.1,0.6,0.4,1.2,0.8,1.6
							C592.4,142.2,592.6,142.3,592.7,142.4z"/>
					</g>
					<g class="st1">
						<path class="st2" d="M653.2,161.6v-55.4c0-7.7,2.2-14.2,6.5-19.2c4.6-5.4,11.5-8.2,20.5-8.2h50.6c7.2,0,12.4,5.3,12.4,12.6
							v23.1l-26.1,10.1H705v-10.1h-12.2v47.1H653.2z M673.8,142.6v-31.9c0-1.8,0-7.1,3.7-11c0.7-0.7,1.5-1.4,2.4-1.9
							c-1.5,0-4.8,0.2-5.9,1.5l-0.1,0.1l-0.1,0.1c-1.1,1.3-1.7,3.6-1.7,6.7v36.4H673.8z M719.9,97.8c1.3,1.1,2.4,2.5,3.1,4.1
							l1.2-0.5v-3.7H719.9z"/>
					</g>
					<g class="st1">
						<path class="st2" d="M731.8,161.7V51.9h39.6v109.8H731.8z M752.4,142.7V97.8h-1.6v44.9H752.4z"/>
					</g>
					<g class="st1">
						<path class="st2" d="M785,161.7c-3.2,0-6-0.4-8.7-1.2l-0.4-0.1c-3.4-1.1-6.5-3.2-8.7-6c-2.3-2.8-3.8-5.9-4.7-9.2
							c-0.9-3.1-1.3-6.6-1.3-11v-4.8c0-6.5,1.2-11.8,3.7-15.9h-2.1V78.8h67.5c6.9,0,12.6,2.4,16.4,6.9c3.4,4.1,5.1,9.6,5.1,16.2
							v47.5c0,7.1-5.1,12.3-12.2,12.3H785z M832.7,142.7v-40.8c0-2.3-0.4-3.4-0.7-3.9c-0.2-0.1-0.8-0.2-1.7-0.2h-4.1
							c0.5,0.4,1,0.9,1.4,1.4c2.3,2.7,3.4,6,3.4,10v6.5l0.1,4V135c0,3-1.2,5.7-3.1,7.7H832.7z M782,142.4c0.8,0.2,1.7,0.3,3,0.3h0.6
							c-0.6-0.5-1.1-1.1-1.5-1.6c-1.8-2.3-2.8-5.3-2.8-8.9v-2.8c0-2.7,0.5-5,1.5-7c-1.1,0.2-1.5,0.6-1.6,0.8l-0.2,0.2
							c-0.2,0.3-1,1.8-1,6.1v4.8c0,2.5,0.1,4.2,0.5,5.5l0.1,0.3l0.1,0.5c0.1,0.6,0.4,1.2,0.8,1.6C781.7,142.2,781.9,142.3,782,142.4
							z"/>
					</g>
					<g class="st1">
						<path class="st2" d="M898.5,161.6V115c0-0.2,0-0.3,0-0.5h-16.3v47.1h-39.6v-83h19v0.2h41.5c5.8,0,10.9,0.8,15.1,2.3
							c4.6,1.7,8.5,4.3,11.5,7.5c3,3.2,5.2,7.1,6.6,11.7l0,0.1c1.2,4.3,1.7,8.6,1.7,12.9v48.1H898.5z M919.1,142.6v-29
							c0-2.8-0.3-5.4-1-7.8l0-0.1c-0.4-1.5-1.1-2.9-2.2-4c-1-1.1-2.5-2-4.3-2.7c-0.4-0.2-0.8-0.3-1.3-0.4c1,0.7,1.8,1.4,2.4,2
							l0.2,0.1l0.1,0.1c3,3.4,4.5,8.1,4.5,14.1v27.6H919.1z M863.2,142.6V97.8h-1.6v44.8H863.2z"/>
					</g>
					<g class="st1">
						<path class="st2" d="M934.8,161.7v-47.8h-5.3l-8.6-23V78.8h13.9V58h39.6v20.8h18.2v35.1h-18.2v47.8H934.8z M955.4,142.7V77
							h-1.6v65.7H955.4z"/>
					</g>
					<g class="st1">
						<path class="st2" d="M969.7,161.7v-38.3h39.6v38.3H969.7z M990.3,142.7v-0.3h-1.6v0.3H990.3z"/>
					</g>
					<g class="st1">
						<path class="st2" d="M1000.8,161.7V51.9h39.6v109.8H1000.8z M1021.4,142.7V97.8h-1.6v44.9H1021.4z"/>
					</g>
					<g class="st1">
						<path class="st2" d="M1087.8,161.6V115c0-0.2,0-0.3,0-0.5h-16.3v47.1h-39.6v-83h19v0.2h41.5c5.8,0,10.9,0.8,15.1,2.3
							c4.6,1.7,8.5,4.3,11.5,7.5c3,3.2,5.2,7.1,6.6,11.7l0,0.1c1.2,4.3,1.7,8.6,1.7,12.9v48.1H1087.8z M1108.3,142.6v-29
							c0-2.8-0.3-5.4-1-7.8l0-0.1c-0.4-1.5-1.1-2.9-2.2-4c-1-1.1-2.5-2-4.3-2.7c-0.4-0.2-0.8-0.3-1.3-0.4c1,0.7,1.8,1.4,2.4,2
							l0.1,0.1l0.1,0.1c3,3.4,4.5,8.1,4.5,14.2v27.6H1108.3z M1052.4,142.6V97.8h-1.6v44.8H1052.4z"/>
					</g>
					<g class="st1">
						<path class="st2" d="M1124.1,161.7v-47.8h-5.6l-8.3-23V78.8h13.9c0.1-3.9,0.6-7.3,1.4-10.2l0.1-0.4c1.3-3.9,3.5-7.3,6.6-10.1
							l0.2-0.2l0.2-0.1c3.2-2.5,6.9-4.2,11.2-4.9c3.5-0.7,7.4-1,12.6-1h15.6l8.6,22.1v5h1.1l0.3,34.9h-18.2v47.8H1124.1z
							 M1144.7,142.7V98h-0.1V82.8c0-4.1,1-7.4,2.8-10c0.3-0.4,0.6-0.9,1.1-1.4c-0.4,0.1-0.7,0.1-1,0.2l-0.4,0.1h-0.3
							c-0.9,0.2-1.7,0.5-2.3,0.9c-0.3,0.3-0.6,0.8-0.7,1.3c-0.4,1.5-0.6,3.6-0.6,6.6v17.2h-0.1v45H1144.7z"/>
					</g>
					<g class="st1">
						<path class="st2" d="M1202.3,161.6c-6,0-11.1-0.8-15.2-2.5c-4.4-1.7-8.3-4.2-11.4-7.5c-3.1-3.3-5.3-7.3-6.7-11.7l-0.2-0.6
							v-0.3c-1.1-4.1-1.6-8.3-1.6-12.4v-13.2c0-4.6,0.6-8.8,1.8-13c1.4-4.9,3.7-8.9,6.8-12c3-3.2,6.9-5.7,11.5-7.5
							c4.2-1.6,9.3-2.4,15-2.4h30c5.8,0,10.9,0.8,15.1,2.3c4.6,1.8,8.5,4.3,11.5,7.4l0.2,0.2c3,3.3,5.3,7.2,6.6,11.7l0.2,0.6v0.3
							c1.1,4.1,1.6,8.3,1.6,12.4v13.2c0,4.8-0.6,9.2-1.8,13c-1.3,4.6-3.6,8.7-6.8,11.9c-3.1,3.2-6.9,5.7-11.5,7.4
							c-4.2,1.7-9.2,2.6-15.1,2.6H1202.3z M1187.2,134.5c0.6,1.9,1.4,3.2,2.3,4.2c1,1.1,2.4,2,4.3,2.7c2,0.8,5,1.2,8.4,1.2h0
							c-3.9-0.6-7.1-2.2-9.5-4.6l-0.2-0.2c-2.9-3.2-4.3-7.8-4.3-13.9v-9c0-6.5,1.4-11,4.4-14.2c0.7-0.8,1.5-1.5,2.4-2.1
							c-0.4,0.1-0.7,0.2-1,0.3c-1.9,0.7-3.3,1.6-4.3,2.7l-0.2,0.2c-1,1-1.6,2.2-2,3.8l0,0.1c-0.7,2.5-1,5-1,7.8v13.2
							C1186.3,129.5,1186.6,132,1187.2,134.5z M1242.1,100.4c3.3,3.2,4.9,8,4.9,14.6v9c0,6.1-1.6,10.9-4.6,14.1l-0.1,0.1
							c-2.4,2.3-5.2,3.7-8.7,4.4c2.9-0.1,5.4-0.5,7.3-1.2c1.9-0.7,3.3-1.5,4.4-2.7l0.2-0.2c1-1,1.6-2.2,2-3.8l0.1-0.2
							c0.7-2.2,1-4.8,1-7.7v-13.2c0-2.7-0.3-5.2-0.9-7.7c-0.6-1.9-1.3-3.2-2.2-4.2c-1.2-1.2-2.6-2-4.5-2.7c-0.2-0.1-0.4-0.1-0.6-0.2
							C1240.9,99.2,1241.6,99.8,1242.1,100.4z M1228,123.9V115c0-0.2,0-0.3,0-0.5h-20.8c0,0.1,0,0.3,0,0.4v9H1228z"/>
					</g>
				</g>
				<g>
					<g>
						<path class="st2" d="M346.4,96.7l-20,54.1c-0.8,2.1-2,3.5-3.6,4.3c-1.5,0.8-3.3,0.9-4.6,0.9h-27c-1.7,0-3.2-0.3-4.5-0.8
							c-2.4-1-3.4-3.5-3.7-4.3l-19.9-54.2v59.4h-30V71c0-4.6,2.8-7.5,7.2-7.5h37.4c4,0,7.1,2,8.5,5.6l0,0.1l18.6,55.4l18.7-55.4
							l0-0.1c0.5-1.1,1.3-2.8,3-4.1l0.1-0.1l0.1-0.1c1.5-0.9,3.2-1.4,5-1.4h37c4.4,0,7.2,2.9,7.2,7.5v85.2l-29.7,0.1V96.7z"/>
					</g>
					<g>
						<path class="st2" d="M381.2,182.3v-25.8h48.2c2,0,2.9-0.4,3.2-0.7c0.5-0.6,0.8-2,0.8-3.9v-1.1h-25.5c-10.5,0-17.9-2.3-22.6-7
							c-4.6-4.6-7-11.5-7-20.3V84.3H407v36.6c0,3.5,0.8,4.4,0.8,4.4c0,0,0.8,0.7,4,0.7h21.5V84.3H462v69.2c0,3.9-0.5,7.8-1.6,11.3
							c-1.1,3.7-2.8,6.9-5.1,9.4c-2.5,2.7-5.7,4.8-9.5,6.1c-3.7,1.3-8.2,2-13.3,2H381.2z"/>
					</g>
					<g>
						<path class="st2" d="M510.5,156.1c-2.1,0-3.7-0.4-5-1.3c-1.1-0.7-2.1-1.8-3-3.4l-0.1-0.1l-41.5-82v-5.9h34.2l30.2,63.1
							l30.2-63.1h33.7v5.9l-41.9,81.9c-0.9,1.8-2,3.2-3.5,3.9c-1.5,0.9-3.1,1-4.6,1H510.5z"/>
					</g>
					<g>
						<path class="st2" d="M595.8,156.2c-2.5,0-4.9-0.3-7.2-0.9l-0.2-0.1c-2.5-0.8-4.6-2.2-6.3-4.2c-1.6-1.9-2.9-4.4-3.6-7.1
							c-0.8-2.6-1.1-5.7-1.1-9.6v-4.8c0-7.1,1.7-12.4,5-15.7c3.2-3.3,7.8-5.1,13.5-5.1h32.4c0-0.2,0-0.3,0-0.4c-0.1,0-0.2,0-0.3,0
							l-48.9-0.2V84.3h62c5.4,0,9.3,1.6,12.1,4.9c2.6,3.1,3.8,7.2,3.8,12.7v47.5c0,4-2.7,6.8-6.6,6.8H595.8z M628.3,132.4v-3.2
							h-22.8c0,0.1,0,3.1,0,3.1L628.3,132.4z"/>
					</g>
					<g>
						<path class="st2" d="M658.7,156.1v-49.9c0-6.4,1.7-11.7,5.1-15.6c3.5-4.2,9-6.3,16.4-6.3h50.6c4.1,0,6.9,2.9,6.9,7.1v19.3
							l-21.6,8.4h-5.6V109h-22.2c-0.4,0-0.7,0-0.9,0.1c-0.1,0.3-0.1,0.8-0.1,1.6v45.4H658.7z"/>
					</g>
					<g>
						<path class="st2" d="M737.3,156.2V84.3h28.6v71.9H737.3z M737.3,82.3V57.4h28.6v24.9H737.3z"/>
					</g>
					<g>
						<path class="st2" d="M785,156.2c-2.5,0-4.9-0.3-7.2-0.9l-0.2-0.1c-2.5-0.8-4.6-2.2-6.3-4.2c-1.6-1.9-2.9-4.4-3.6-7.1
							c-0.8-2.6-1.1-5.7-1.1-9.6v-4.8c0-7.1,1.7-12.4,5-15.7c3.2-3.3,7.8-5.1,13.5-5.1h32.4c0-0.2,0-0.3,0-0.4c-0.1,0-0.2,0-0.3,0
							l-48.8-0.2V84.3h62c5.4,0,9.3,1.6,12.1,4.9c2.6,3.1,3.8,7.2,3.8,12.7v47.5c0,4-2.7,6.8-6.6,6.8H785z M817.6,132.4v-3.2h-22.8
							c0,0.1,0,3.1,0,3.1L817.6,132.4z"/>
					</g>
					<g>
						<path class="st2" d="M904,156.1V115c0-3.5-0.8-4.7-1-5c-0.7-0.6-2-1-3.8-1h-22.5v47.1h-28.6v-72h8.1v0.2h46.9
							c5.1,0,9.6,0.7,13.2,2.1c3.9,1.5,7.1,3.5,9.5,6.2c2.4,2.7,4.2,5.9,5.3,9.6c1,3.6,1.6,7.4,1.6,11.5v42.5H904z"/>
					</g>
					<g>
						<polygon class="st2" points="940.3,156.2 940.3,108.4 933.3,108.4 926.4,89.9 926.4,84.3 940.3,84.3 940.3,63.5 968.9,63.5 
							968.9,84.3 987.1,84.3 987.1,108.4 968.9,108.4 968.9,156.2 						"/>
					</g>
					<g>
						<rect x="975.2" y="128.9" class="st2" width="28.6" height="27.3"/>
					</g>
					<g>
						<path class="st2" d="M1006.3,156.2V84.3h28.6v71.9H1006.3z M1006.3,82.3V57.4h28.6v24.9H1006.3z"/>
					</g>
					<g>
						<path class="st2" d="M1093.2,156.1V115c0-3.5-0.8-4.7-1-5c-0.7-0.6-2-1-3.8-1h-22.5v47.1h-28.6v-72h8.1v0.2h46.9
							c5.1,0,9.6,0.7,13.2,2.1c3.9,1.5,7.1,3.5,9.5,6.2c2.4,2.7,4.2,5.9,5.3,9.6c1,3.6,1.6,7.4,1.6,11.5v42.5H1093.2z"/>
					</g>
					<g>
						<path class="st2" d="M1129.6,156.2v-47.8h-7.2l-6.7-18.5v-5.6h13.9v-3.7c0-4,0.4-7.5,1.2-10.5l0.1-0.2c1-3.1,2.7-5.6,4.9-7.6
							l0.1-0.1l0.1-0.1c2.5-1.9,5.4-3.2,8.7-3.8c2.9-0.6,6.5-0.9,11.5-0.9h11.9l6.9,17.5v5.9h-16c-0.4,0-0.6,0-0.8,0.1
							c-0.1,0.3-0.2,0.8-0.2,1.8v1.7h18.2l0.2,23.9h-18.2v47.8H1129.6z"/>
					</g>
					<g>
						<path class="st2" d="M1202.3,156.1c-5.2,0-9.6-0.7-13.1-2.1c-3.8-1.4-7-3.5-9.4-6.1c-2.3-2.4-4.1-5.5-5.3-9.5l0-0.1
							c-1-3.6-1.6-7.4-1.6-11.5v-13.2c0-4,0.5-7.8,1.5-11.5c1.2-4,3-7.2,5.5-9.7c2.5-2.6,5.6-4.6,9.3-6c3.6-1.4,8-2.1,13.1-2.1h30
							c5.1,0,9.6,0.7,13.2,2.1c3.8,1.4,7,3.5,9.5,6.1c2.4,2.5,4.1,5.6,5.4,9.5l0,0.1c1,3.6,1.6,7.4,1.6,11.5v13.2
							c0,4.2-0.5,8.1-1.6,11.5c-1.1,3.9-2.9,7.1-5.5,9.7c-2.5,2.6-5.6,4.6-9.5,6c-3.8,1.4-8.1,2-13.2,2H1202.3z M1202.5,128.6
							c0.3,0.2,1.2,0.8,3.8,0.8h24.2c1.6-0.2,2.1-0.6,2.2-0.7c0,0,0.8-0.9,0.8-4.7v-9c0-3.9-0.8-5-0.8-5l-0.1-0.1
							c-0.6-0.6-2-0.9-3.9-0.9h-22.4c-3,0-3.7,0.7-3.7,0.7l-0.1,0.1c0,0-0.8,0.9-0.8,5.1v9C1201.7,127.3,1202.3,128.4,1202.5,128.6z
							"/>
					</g>
				</g>
			</g>
			<g>
				<g class="st0">
					<g class="st1">
						<path class="st2" d="M344.9,157.7v-52.3l-17,46c-0.9,2.4-2.3,4.1-4.2,5.1c-1.8,1-3.8,1.1-5.3,1.1h-27c-2,0-3.7-0.3-5.1-1
							c-3-1.3-4.1-4.2-4.5-5.1v-0.1L265,105.6v52.1h-33V71c0-5.4,3.5-9,8.7-9h37.4c4.7,0,8.3,2.4,9.9,6.6l0.1,0.3l17.1,51l17.3-51.2
							c0.8-2,1.9-3.6,3.4-4.8l0.4-0.3c1.7-1.1,3.7-1.7,5.9-1.7h37c5.2,0,8.7,3.6,8.7,9v86.7L344.9,157.7z M242.9,146.7h11V88.5
							c0-4.2,3.1-7.3,7.3-7.3h1.1c3.3,0,6.1,1.9,7.3,5v0.1l22.1,60.3H318l22.3-60.4c1.2-3.1,3.9-5,7.2-5h1.2c4.2,0,7.3,3.1,7.3,7.3
							v58.2h11.1V72.9h-34.3l-20.2,59.7c-0.8,2.8-3.2,4.7-6.2,4.7h-2.1c-3.1,0-5.6-1.9-6.4-4.7l-20-59.6H243L242.9,146.7
							L242.9,146.7z M319.1,146.6L319.1,146.6L319.1,146.6z M278.3,73L278.3,73L278.3,73z M332.1,72.9L332.1,72.9L332.1,72.9z
							 M332.9,72.3L332.9,72.3L332.9,72.3z"/>
					</g>
					<g class="st1">
						<path class="st2" d="M432.6,183.8h-52.9V155h49.7c1.2,0,1.8-0.2,2-0.2c0.1-0.2,0.4-0.9,0.4-2.5h-24c-11,0-18.7-2.4-23.7-7.4
							s-7.4-12-7.4-21.4V82.8h31.7v38.1c0,1.9,0.3,2.9,0.4,3.3c0.4,0.1,1.2,0.3,2.9,0.3h20.1V82.8h31.7v70.7c0,4.1-0.5,8-1.6,11.7
							c-1.1,3.8-3,7.2-5.4,9.9c-2.6,3-6,5.2-10.2,6.6C442.6,183.1,437.9,183.8,432.6,183.8z M390.7,172.8h41.9c4,0,7.4-0.5,10.2-1.5
							c2.4-0.8,4.2-2,5.6-3.5c1.3-1.5,2.4-3.5,3-5.7c0.8-2.7,1.1-5.6,1.1-8.7V93.8h-9.7v58.1c0,4.3-1,7.6-3,10
							c-2.3,2.7-5.8,4.1-10.4,4.1h-38.7V172.8z M387.6,93.8v29.7c0,6.4,1.4,10.8,4.2,13.6c2.8,2.7,8.3,4.2,16,4.2h21.6l-2.2-5.8
							h-15.5c-4.9,0-8.4-1.2-10.8-3.6c-2.4-2.4-3.5-6-3.5-11V93.8H387.6z M408.9,124.4L408.9,124.4L408.9,124.4z"/>
					</g>
					<g class="st1">
						<path class="st2" d="M539.2,157.6h-28.8c-2.5,0-4.4-0.5-5.9-1.6c-1.3-0.9-2.4-2.1-3.4-3.9l-0.2-0.3l-41.6-82.2V62h36.6
							l29.2,61.1L554.6,62h36.1v7.7l-42.1,82.2c-1,2.1-2.3,3.6-4,4.5C542.8,157.4,541,157.6,539.2,157.6z M510.5,146.6H539L576.7,73
							h-15.2l-29.3,60.6c-1.2,2.5-3.7,4-6.5,4h-1.3c-2.9,0-5.3-1.5-6.5-4l-29-60.6h-15.7L510.5,146.6z"/>
					</g>
					<g class="st1">
						<path class="st2" d="M650.2,157.7h-54.5c-2.7,0-5.2-0.3-7.6-1l-0.3-0.1c-2.8-0.9-5.2-2.6-6.9-4.7c-1.8-2.2-3.2-4.8-3.9-7.7
							c-0.8-2.7-1.2-5.9-1.2-10v-4.8c0-7.6,1.8-13.2,5.4-16.8c1.2-1.2,2.6-2.3,4.1-3.1h-7.9V82.8h63.5c5.8,0,10.3,1.9,13.3,5.5
							c2.8,3.4,4.2,7.9,4.2,13.6v47.5C658.4,154.3,655,157.7,650.2,157.7z M591.3,146.2c1.4,0.4,2.8,0.5,4.4,0.5h51.7v-44.8
							c0-3.1-0.6-5.2-1.7-6.6c-0.3-0.4-1.2-1.5-4.7-1.5h-52.5v4.8l39.3,0.2l0,0c1.2,0,4.9,0,7.5,3c1.6,1.9,2.4,4.3,2.4,7.4v10.5h0.1
							V135c0,3.9-2.9,6.9-6.8,6.9l0,0l-25.8-0.1c-3.9,0-6.1-1.7-7.3-3.2c-1.6-2-1.9-4.6-1.9-6.4v-2.8c0-2.8,0.7-5,2.1-6.6
							c1.7-2,4.2-3.1,7.1-3.1h19.2l-0.6-1.5h-28c-4.1,0-5.8,1.3-6.7,2.2l-0.1,0.1c-0.7,0.6-2.2,2.8-2.2,9v4.8c0,3,0.2,5.2,0.7,6.9
							l0.1,0.2c0.3,1.3,0.9,2.5,1.7,3.4C589.9,145.5,590.7,145.9,591.3,146.2z M606.9,130.8l19.8,0.1v-0.2L606.9,130.8L606.9,130.8z
							 M607,128.9L607,128.9L607,128.9z"/>
					</g>
					<g class="st1">
						<path class="st2" d="M688.8,157.6h-31.6v-51.4c0-6.8,1.9-12.4,5.5-16.6c3.8-4.5,9.7-6.8,17.5-6.8h50.6c5,0,8.4,3.5,8.4,8.6
							v20.4l-22.8,8.8H709v-10.1h-20.2c0,0.1,0,0.1,0,0.2V157.6z M668.2,146.6h9.6v-35.9c0-2.4,0.3-5.8,2.6-8.2c1.9-1.9,4.6-3,7.8-3
							h25.1c3.7,0,6.6,2.9,6.6,6.8v1.1l8.3-3.2V93.8h-48.1c-6.6,0-8.5,2.2-9.1,2.9l-0.1,0.1c-1.9,2.1-2.8,5.3-2.8,9.4v40.4H668.2z"
							/>
					</g>
					<g class="st1">
						<path class="st2" d="M767.4,157.7h-31.6V55.9h31.6V157.7z M746.8,146.7h9.6V93.8h-9.6V146.7z M746.8,72.8h9.6v-5.9h-9.6V72.8z
							"/>
					</g>
					<g class="st1">
						<path class="st2" d="M839.5,157.7H785c-2.7,0-5.2-0.3-7.6-1l-0.3-0.1c-2.8-0.9-5.2-2.6-6.9-4.7c-1.8-2.2-3.2-4.8-3.9-7.7
							c-0.8-2.7-1.2-5.9-1.2-10v-4.8c0-7.6,1.8-13.2,5.4-16.8c1.2-1.2,2.6-2.3,4.1-3.1h-7.9V82.8h63.5c5.8,0,10.3,1.9,13.3,5.5
							c2.8,3.4,4.2,7.9,4.2,13.6v47.5C847.7,154.3,844.3,157.7,839.5,157.7z M780.6,146.2c1.4,0.4,2.8,0.5,4.4,0.5h51.7v-44.8
							c0-3.1-0.6-5.2-1.7-6.6c-0.3-0.4-1.2-1.5-4.7-1.5h-52.5v4.8l39.3,0.2l0,0c1.2,0,4.9,0,7.5,3c1.6,1.9,2.4,4.3,2.4,7.4v10.5h0.1
							V135c0,3.9-2.9,6.9-6.8,6.9l0,0l-25.8-0.1c-3.9,0-6.1-1.7-7.3-3.2c-1.6-2-1.9-4.6-1.9-6.4v-2.8c0-2.8,0.7-5,2.1-6.6
							c1.7-2,4.2-3.1,7.1-3.1h19.2l-0.6-1.5h-28c-4.1,0-5.8,1.3-6.7,2.2l-0.1,0.1c-0.7,0.6-2.2,2.8-2.2,9v4.8c0,3,0.2,5.2,0.7,6.9
							l0.1,0.2c0.3,1.3,0.9,2.5,1.7,3.4C779.2,145.5,780,145.9,780.6,146.2z M796.3,130.8l19.8,0.1v-0.2L796.3,130.8L796.3,130.8z"
							/>
					</g>
					<g class="st1">
						<path class="st2" d="M934.1,157.6h-31.6V115c0-2.7-0.4-3.7-0.6-4c-0.3-0.2-1.1-0.5-2.7-0.5h-21v47.1h-31.6v-75h11v0.2h45.5
							c5.3,0,9.9,0.7,13.7,2.1c4,1.5,7.4,3.7,10,6.5s4.5,6.3,5.7,10.2c1,3.7,1.6,7.7,1.6,11.9L934.1,157.6L934.1,157.6z
							 M913.5,146.6h9.6v-33c0-3.2-0.4-6.2-1.2-8.9c-0.6-2.3-1.7-4.2-3.1-5.7c-1.5-1.6-3.4-2.8-5.8-3.7c-2.6-1-6-1.5-9.9-1.5h-24.5
							l0,0l2.1,5.7h18.4c5.7,0,9,2.1,10.7,3.9l0.1,0.1c2.3,2.6,3.5,6.3,3.5,11.5v31.6H913.5z M857.6,146.6h9.6V93.8h-9.6V146.6z"/>
					</g>
					<g class="st1">
						<path class="st2" d="M970.4,157.7h-31.6v-47.8h-6.5l-7.4-19.7v-7.4h13.9V62h31.6v20.8h18.2v27.1h-18.2V157.7z M949.8,146.7
							h9.6V98.9h18.2v-5.1h-18.2V73h-9.6v20.8H938l1.9,5.1h9.9L949.8,146.7L949.8,146.7z"/>
					</g>
					<g class="st1">
						<path class="st2" d="M1005.3,157.7h-31.6v-30.3h31.6V157.7z M984.7,146.7h9.6v-8.3h-9.6V146.7z"/>
					</g>
					<g class="st1">
						<path class="st2" d="M1036.4,157.7h-31.6V55.9h31.6V157.7z M1015.8,146.7h9.6V93.8h-9.6L1015.8,146.7L1015.8,146.7z
							 M1015.8,72.8h9.6v-5.9h-9.6L1015.8,72.8L1015.8,72.8z"/>
					</g>
					<g class="st1">
						<path class="st2" d="M1123.4,157.6h-31.6V115c0-2.7-0.4-3.7-0.6-4c-0.3-0.2-1.1-0.5-2.7-0.5h-21v47.1h-31.6v-75h11v0.2h45.5
							c5.3,0,9.9,0.7,13.7,2.1c4,1.5,7.4,3.7,10,6.5s4.5,6.3,5.7,10.2c1,3.7,1.6,7.7,1.6,11.9V157.6z M1102.7,146.6h9.6v-33
							c0-3.2-0.4-6.2-1.2-8.9c-0.6-2.3-1.7-4.2-3.1-5.7c-1.5-1.6-3.4-2.8-5.8-3.7c-2.6-1-6-1.5-9.9-1.5h-24.5l0,0l2.1,5.7h18.4
							c5.7,0,9,2.1,10.7,3.9l0.1,0.1c2.3,2.6,3.5,6.3,3.5,11.5v31.6H1102.7z M1046.8,146.6h9.6V93.8h-9.6V146.6z"/>
					</g>
					<g class="st1">
						<path class="st2" d="M1159.7,157.7h-31.6v-47.8h-6.8l-7.1-19.7v-7.4h13.9v-2.2c0-4.1,0.4-7.8,1.3-10.9l0.1-0.3
							c1.1-3.4,3-6.2,5.5-8.4l0.1-0.1c2.6-2.1,5.8-3.5,9.4-4.1c3.1-0.6,6.7-0.9,11.9-0.9h12.9l7.3,18.8v7.6h-17c0,0.1,0,0.3,0,0.4
							V83h18.1l0.2,26.9h-18.2L1159.7,157.7L1159.7,157.7z M1139.1,146.7h9.6V98.9h18.1V94h-18.2V82.8c0-3.2,0.7-5.8,2.1-7.7
							c1-1.5,3.4-3.7,8.4-3.7h4.4l-1.7-4.4h-5.4c-4.4,0-7.5,0.2-9.7,0.7h-0.2c-1.8,0.3-3.3,0.9-4.5,1.8c-0.9,0.8-1.6,1.9-2,3.2
							c-0.6,2.1-0.8,4.7-0.8,7.8v13.2h-11.9l1.8,5.1h10L1139.1,146.7L1139.1,146.7z"/>
					</g>
					<g class="st1">
						<path class="st2" d="M1232.3,157.6h-30c-5.3,0-10-0.7-13.7-2.2c-4-1.5-7.3-3.7-10-6.5c-2.5-2.7-4.5-6.1-5.7-10.1v-0.2
							c-1-3.7-1.6-7.7-1.6-11.9v-13.2c0-4.1,0.5-8,1.6-11.9c1.2-4.1,3.1-7.6,5.8-10.3c2.6-2.8,6-5,10-6.5c3.8-1.4,8.4-2.1,13.6-2.1
							h30c5.3,0,9.9,0.7,13.7,2.1c3.9,1.5,7.3,3.6,10,6.4l0.1,0.1c2.5,2.7,4.5,6.1,5.7,10.1v0.2c1,3.7,1.6,7.7,1.6,11.9v13.2
							c0,4.3-0.5,8.3-1.6,11.9c-1.1,4-3.1,7.5-5.8,10.2c-2.7,2.8-6.1,5-10.1,6.5C1242,156.9,1237.5,157.6,1232.3,157.6z
							 M1183.4,135.6c0.8,2.4,1.8,4.3,3.2,5.8c1.5,1.6,3.4,2.8,5.8,3.7c2.5,1,5.9,1.5,9.8,1.5h30c3.9,0,7.3-0.5,10-1.5
							c2.5-0.9,4.4-2.1,5.9-3.7l0.1-0.1c1.5-1.5,2.5-3.3,3.1-5.7c0.8-2.6,1.2-5.6,1.2-8.9v-13.2c0-3.2-0.4-6.1-1.1-8.8
							c-0.8-2.4-1.8-4.3-3.2-5.8c-1.6-1.6-3.5-2.8-6-3.7c-2.6-1-6-1.5-9.9-1.5h-30c-3.9,0-7.2,0.5-9.8,1.5c-2.4,0.9-4.3,2.1-5.8,3.7
							l-0.1,0.1c-1.5,1.5-2.5,3.3-3.1,5.7c-0.8,2.8-1.2,5.7-1.2,8.9v13.2C1182.3,130,1182.7,132.9,1183.4,135.6z M1228.7,139h-5.5
							v-0.1h-16.9c-4.7,0-8.3-1.2-10.7-3.7l-0.1-0.1c-2.9-3.2-3.3-7.9-3.3-11.2v-9c0-5.4,1-9,3.3-11.5c2.4-2.6,5.9-3.9,10.8-3.9
							h22.4c4.6,0,8.2,1.2,10.6,3.7c2.5,2.4,3.7,6.3,3.7,11.8v9c0,5.2-1.2,8.9-3.5,11.3l-0.1,0.1
							C1236.8,137.9,1233.3,139,1228.7,139z M1203.6,127.6c0.3,0.1,1.1,0.3,2.7,0.3h24.1c0.6-0.1,1-0.2,1.2-0.3
							c0.1-0.4,0.4-1.5,0.4-3.6v-9c0-2.7-0.4-3.8-0.5-4.1c-0.1-0.1-0.9-0.4-2.8-0.4h-22.4c-1.6,0-2.4,0.2-2.6,0.3
							c-0.1,0.4-0.5,1.5-0.5,4.1v9C1203.2,126.1,1203.5,127.2,1203.6,127.6z M1231.5,127.8L1231.5,127.8L1231.5,127.8z
							 M1203.7,110.7L1203.7,110.7L1203.7,110.7z"/>
					</g>
				</g>
				<g>
					<g>
						<path class="st3" d="M350.4,152.2V88.5c0-1.2-0.6-1.8-1.8-1.8h-1.2c-1,0-1.7,0.5-2.1,1.5l-22.7,61.3c-0.4,1.1-0.9,1.8-1.6,2.1
							c-0.7,0.4-1.7,0.5-2.8,0.5h-27c-1.3,0-2.2-0.2-2.9-0.5c-0.7-0.3-1.2-1.1-1.6-2.1l-22.5-61.3c-0.4-1-1.1-1.5-2.2-1.5h-1.1
							c-1.2,0-1.8,0.6-1.8,1.8v63.7h-22V71c0-2.4,1.1-3.5,3.2-3.5h37.4c2.4,0,4,1.1,4.8,3.1l20.3,60.5c0.1,0.5,0.5,0.7,1.1,0.7h2.1
							c0.5,0,0.8-0.2,0.9-0.7l20.4-60.5c0.4-1,0.9-1.8,1.7-2.4c0.8-0.5,1.8-0.8,2.9-0.8h37c2.2,0,3.2,1.1,3.2,3.5v81.2L350.4,152.2
							L350.4,152.2z"/>
					</g>
					<g>
						<path class="st3" d="M436.5,144.7h0.8V88.3H458v65.2c0,3.7-0.5,7.1-1.4,10.2c-0.9,3-2.3,5.7-4.2,7.8c-2,2.2-4.6,3.9-7.8,5
							c-3.3,1.2-7.3,1.8-12,1.8h-47.4v-17.8h44.2c2.9,0,5-0.7,6.2-2.1c1.2-1.4,1.8-3.5,1.8-6.5v-5.1h-29.5c-9.3,0-15.9-1.9-19.8-5.8
							c-3.9-3.9-5.8-9.7-5.8-17.5V88.3H403v32.6c0,3.5,0.7,5.9,2,7.2s3.6,1.9,6.8,1.9h19.3L436.5,144.7z"/>
					</g>
					<g>
						<path class="st4" d="M558.1,67.5h27.2v0.9l-41.5,81.1c-0.5,1.1-1.1,1.8-1.8,2.1c-0.6,0.4-1.5,0.5-2.7,0.5h-28.8
							c-1.3,0-2.2-0.2-2.8-0.6c-0.6-0.4-1.2-1.1-1.8-2.1l-41-81v-0.9h27.7l30.5,63.7c0.3,0.6,0.8,0.9,1.6,0.9h1.3
							c0.8,0,1.3-0.3,1.6-0.9L558.1,67.5z"/>
					</g>
					<g>
						<path class="st4" d="M583,104.1V88.3h58c4.1,0,7,1.1,9,3.5s2.9,5.7,2.9,10.1v47.5c0,1.8-0.9,2.8-2.6,2.8h-54.5
							c-2.3,0-4.3-0.3-6.1-0.8c-1.8-0.6-3.3-1.6-4.5-3s-2.2-3.3-2.8-5.6c-0.7-2.3-1-5.1-1-8.5v-4.8c0-6,1.3-10.4,3.8-12.9
							c2.5-2.6,6.1-3.9,10.7-3.9h31.7l3.9,9.4h0.8v-12.9c0-1.8-0.4-3-1.1-3.8c-0.7-0.8-1.8-1.1-3.3-1.1L583,104.1L583,104.1z
							 M631,136.4c0.8,0,1.3-0.5,1.3-1.4v-9.8h-27.1c-1.4,0-2.3,0.4-2.9,1.1s-0.8,1.8-0.8,3.1v2.8c0,1.3,0.3,2.4,0.8,3
							c0.6,0.8,1.6,1.1,2.9,1.1L631,136.4L631,136.4z"/>
					</g>
					<g>
						<path class="st4" d="M715.4,115.1h-0.9v-8.8c0-0.8-0.4-1.3-1.1-1.3h-25.1c-1.8,0-3.1,0.5-3.9,1.3c-0.8,0.8-1.1,2.4-1.1,4.4
							v41.4h-20.6v-45.9c0-5.4,1.4-9.8,4.2-13c2.7-3.3,7.1-4.9,13.3-4.9h50.6c2,0,2.9,1.1,2.9,3.1V108L715.4,115.1z"/>
					</g>
					<g>
						<path class="st4" d="M741.3,78.3V61.4h20.6v16.9H741.3z M741.3,152.2V88.3h20.6v63.9L741.3,152.2L741.3,152.2z"/>
					</g>
					<g>
						<path class="st4" d="M772.3,104.1V88.3h58c4.1,0,7,1.1,9,3.5s2.9,5.7,2.9,10.1v47.5c0,1.8-0.9,2.8-2.6,2.8H785
							c-2.3,0-4.3-0.3-6.1-0.8c-1.8-0.6-3.3-1.6-4.5-3s-2.2-3.3-2.8-5.6c-0.7-2.3-1-5.1-1-8.5v-4.8c0-6,1.3-10.4,3.8-12.9
							c2.5-2.6,6.1-3.9,10.7-3.9h31.7l3.9,9.4h0.8v-12.9c0-1.8-0.4-3-1.1-3.8c-0.7-0.8-1.8-1.1-3.3-1.1L772.3,104.1L772.3,104.1z
							 M820.3,136.4c0.8,0,1.3-0.5,1.3-1.4v-9.8h-27.1c-1.4,0-2.3,0.4-2.9,1.1c-0.6,0.7-0.8,1.8-0.8,3.1v2.8c0,1.3,0.3,2.4,0.8,3
							c0.6,0.8,1.6,1.1,2.9,1.1L820.3,136.4L820.3,136.4z"/>
					</g>
					<g>
						<path class="st4" d="M852.2,88.3h50.9c4.6,0,8.6,0.6,11.8,1.8s5.9,2.9,7.9,5.1s3.5,4.9,4.4,8s1.4,6.6,1.4,10.4v38.5H908V115
							c0-3.7-0.7-6.3-2.1-7.8c-1.4-1.4-3.6-2.2-6.7-2.2h-22.3l-3.4-9.3h-0.8v56.4h-20.6v-64h0.1V88.3z"/>
					</g>
					<g>
						<path class="st4" d="M983.1,104.4h-18.2v47.8h-20.6v-47.8h-8.2l-5.7-15.2v-0.9h13.9V67.5h20.6v20.8h18.2V104.4z"/>
					</g>
					<g>
						<path class="st3" d="M979.2,152.2v-19.3h20.6v19.3H979.2z"/>
					</g>
					<g>
						<path class="st3" d="M1010.3,78.3V61.4h20.6v16.9H1010.3z M1010.3,152.2V88.3h20.6v63.9L1010.3,152.2L1010.3,152.2z"/>
					</g>
					<g>
						<path class="st3" d="M1041.4,88.3h50.9c4.6,0,8.6,0.6,11.8,1.8c3.2,1.2,5.9,2.9,7.9,5.1s3.5,4.9,4.4,8s1.4,6.6,1.4,10.4v38.5
							h-20.6V115c0-3.7-0.7-6.3-2.1-7.8c-1.4-1.4-3.6-2.2-6.7-2.2h-22.3l-3.4-9.3h-0.8v56.4h-20.6v-64h0.1L1041.4,88.3L1041.4,88.3z
							"/>
					</g>
					<g>
						<path class="st3" d="M1172.4,104.4h-18.2v47.8h-20.6v-47.8h-8.4l-5.5-15.2v-0.9h13.9v-7.7c0-3.8,0.4-6.9,1.1-9.4
							c0.8-2.4,2.1-4.4,3.8-5.9c1.8-1.4,4.1-2.5,7-3c2.9-0.6,6.5-0.8,10.8-0.8h9.2l5.6,14.3v1.1h-12c-2,0-3.3,0.5-3.9,1.4
							c-0.7,0.9-1.1,2.4-1.1,4.5v5.7h18.2L1172.4,104.4L1172.4,104.4z"/>
					</g>
					<g>
						<path class="st3" d="M1258,126.8c0,3.9-0.5,7.4-1.4,10.4c-0.9,3.1-2.3,5.8-4.5,8c-2.1,2.2-4.7,3.9-8,5.1
							c-3.3,1.2-7.2,1.8-11.8,1.8h-30c-4.6,0-8.6-0.6-11.7-1.8c-3.2-1.2-5.9-2.9-7.9-5.1c-2.1-2.2-3.5-4.9-4.5-8
							c-0.9-3.1-1.4-6.6-1.4-10.4v-13.2c0-3.8,0.5-7.2,1.4-10.4c0.9-3.1,2.3-5.8,4.5-8c2.1-2.2,4.7-3.9,7.9-5.1
							c3.2-1.2,7.1-1.8,11.7-1.8h30c4.6,0,8.6,0.6,11.8,1.8c3.2,1.2,5.9,2.9,8,5.1s3.5,4.9,4.5,8c0.9,3.1,1.4,6.6,1.4,10.4V126.8z
							 M1228.7,133.5c3.3,0,5.5-0.7,6.8-2s2-3.8,2-7.5v-9c0-3.9-0.7-6.6-2.1-7.9c-1.4-1.4-3.6-2.1-6.7-2.1h-22.4
							c-3.3,0-5.5,0.7-6.7,2.1c-1.3,1.4-1.9,4-1.9,7.8v9c0,3.7,0.6,6.1,1.9,7.5c1.3,1.3,3.5,2,6.7,2h22.4L1228.7,133.5L1228.7,133.5
							z"/>
					</g>
				</g>
			</g>
		</g>
	</g>
</g>
<g>
	<g>
		<g>
			<g>
				<g>
					<path class="st2" d="M131.1,152.3c-1.4,0-2.7-0.7-3.3-1.9l-18.2-31.6c-0.7-1.2-0.7-2.7,0-3.9l18.2-31.6c1.4-2.4,5.3-2.4,6.7,0
						l18.2,31.6c0.7,1.2,0.7,2.7,0,3.9l-18.2,31.6C133.8,151.5,132.5,152.3,131.1,152.3z M117.4,116.9l13.8,23.9l13.8-23.9L131.1,93
						L117.4,116.9z"/>
				</g>
				<g>
					<path class="st2" d="M112.9,120.7H76.5c-1.4,0-2.7-0.7-3.3-1.9c-0.7-1.2-0.7-2.7,0-3.9l18.2-31.6c0.7-1.2,2-1.9,3.3-1.9h36.4
						c1.4,0,2.7,0.7,3.3,1.9c0.7,1.2,0.7,2.7,0,3.9l-18.2,31.6C115.6,120,114.3,120.7,112.9,120.7z M83.1,113h27.5l13.8-23.8H96.9
						L83.1,113z"/>
				</g>
				<g>
					<path class="st2" d="M131.1,152.3H94.7c-1.4,0-2.7-0.7-3.3-1.9l-18.2-31.6c-0.7-1.2-0.7-2.7,0-3.9c0.7-1.2,2-1.9,3.3-1.9h36.4
						c1.4,0,2.7,0.7,3.3,1.9l18.2,31.6c0.7,1.2,0.7,2.7,0,3.9C133.8,151.5,132.5,152.3,131.1,152.3z M96.9,144.6h27.5l-13.8-23.9
						H83.1L96.9,144.6z"/>
				</g>
			</g>
			<g>
				<g>
					<path class="st2" d="M131.1,89.1c-1.4,0-2.7-0.7-3.3-1.9l-18.2-31.6c-0.7-1.2-0.7-2.7,0-3.9l18.2-31.6c1.4-2.4,5.3-2.4,6.7,0
						l18.2,31.6c0.7,1.2,0.7,2.7,0,3.9l-18.2,31.6C133.8,88.4,132.5,89.1,131.1,89.1z M117.4,53.7l13.8,23.9L145,53.7l-13.8-23.9
						L117.4,53.7z"/>
				</g>
				<g>
					<path class="st2" d="M112.9,57.6H76.5c-1.4,0-2.7-0.7-3.3-1.9c-0.7-1.2-0.7-2.7,0-3.9l18.2-31.6c0.7-1.2,2-1.9,3.3-1.9h36.4
						c1.4,0,2.7,0.7,3.3,1.9c0.7,1.2,0.7,2.7,0,3.9l-18.2,31.6C115.6,56.8,114.3,57.6,112.9,57.6z M83.1,49.9h27.5L124.4,26H96.9
						L83.1,49.9z"/>
				</g>
				<g>
					<path class="st2" d="M131.1,89.1H94.7c-1.4,0-2.7-0.7-3.3-1.9L73.1,55.7c-0.7-1.2-0.7-2.7,0-3.9s2-1.9,3.3-1.9h36.4
						c1.4,0,2.7,0.7,3.3,1.9l18.2,31.6c0.7,1.2,0.7,2.7,0,3.9C133.8,88.4,132.5,89.1,131.1,89.1z M96.9,81.4h27.5l-13.8-23.9H83.1
						L96.9,81.4z"/>
				</g>
			</g>
			<g>
				<g>
					<path class="st2" d="M185.8,183.8L185.8,183.8c-1.4,0-2.7-0.7-3.3-1.9l-18.2-31.6c-0.7-1.2-0.7-2.7,0-3.9l18.2-31.6
						c1.4-2.4,5.3-2.4,6.7,0l18.2,31.6c0.7,1.2,0.7,2.7,0,3.9l-18.2,31.6C188.5,183.1,187.2,183.8,185.8,183.8z M172,148.4
						l13.8,23.8l13.8-23.8l-13.8-23.9L172,148.4z"/>
				</g>
				<g>
					<path class="st2" d="M167.6,152.3h-36.4c-1.4,0-2.7-0.7-3.3-1.9c-0.7-1.2-0.7-2.7,0-3.9l18.2-31.6c0.7-1.2,2-1.9,3.3-1.9h36.4
						c1.4,0,2.7,0.7,3.3,1.9c0.7,1.2,0.7,2.7,0,3.9l-18.2,31.6C170.2,151.5,169,152.3,167.6,152.3z M137.8,144.6h27.5l13.8-23.9
						h-27.5L137.8,144.6z"/>
				</g>
				<g>
					<path class="st2" d="M185.8,183.8h-36.4c-1.4,0-2.7-0.7-3.3-1.9l-18.2-31.6c-0.7-1.2-0.7-2.7,0-3.9s2-1.9,3.3-1.9h36.4
						c1.4,0,2.7,0.7,3.3,1.9l18.2,31.6c0.7,1.2,0.7,2.7,0,3.9C188.5,183.1,187.2,183.8,185.8,183.8z M151.6,176.1h27.5l-13.8-23.8
						h-27.5L151.6,176.1z"/>
				</g>
			</g>
			<g>
				<g>
					<path class="st2" d="M185.8,120.7c-1.4,0-2.7-0.7-3.3-1.9l-18.2-31.6c-0.7-1.2-0.7-2.7,0-3.9l18.2-31.6c1.4-2.4,5.3-2.4,6.7,0
						l18.2,31.6c0.7,1.2,0.7,2.7,0,3.9l-18.2,31.6C188.5,120,187.2,120.7,185.8,120.7z M172,85.3l13.8,23.8l13.8-23.8l-13.8-23.9
						L172,85.3z"/>
				</g>
				<g>
					<path class="st2" d="M167.6,89.1h-36.4c-1.4,0-2.7-0.7-3.3-1.9c-0.7-1.2-0.7-2.7,0-3.9L146,51.8c0.7-1.2,2-1.9,3.3-1.9h36.4
						c1.4,0,2.7,0.7,3.3,1.9c0.7,1.2,0.7,2.7,0,3.9l-18.2,31.6C170.2,88.4,169,89.1,167.6,89.1z M137.8,81.4h27.5l13.8-23.9h-27.5
						L137.8,81.4z"/>
				</g>
				<g>
					<path class="st2" d="M185.8,120.7h-36.4c-1.4,0-2.7-0.7-3.3-1.9l-18.2-31.6c-0.7-1.2-0.7-2.7,0-3.9c0.7-1.2,2-1.9,3.3-1.9h36.4
						c1.4,0,2.7,0.7,3.3,1.9l18.2,31.6c0.7,1.2,0.7,2.7,0,3.9C188.5,120,187.2,120.7,185.8,120.7z M151.6,113h27.5l-13.8-23.8h-27.5
						L151.6,113z"/>
				</g>
			</g>
			<g>
				<g>
					<path class="st2" d="M76.6,183.8L76.6,183.8c-1.4,0-2.7-0.7-3.3-1.9L55,150.3c-0.7-1.2-0.7-2.7,0-3.9l18.2-31.6
						c1.4-2.4,5.3-2.4,6.7,0l18.2,31.6c0.7,1.2,0.7,2.7,0,3.9l-18.2,31.6C79.2,183.1,78,183.8,76.6,183.8z M62.8,148.4l13.8,23.8
						l13.8-23.8l-13.8-23.9L62.8,148.4z"/>
				</g>
				<g>
					<path class="st2" d="M58.4,152.3H21.9c-1.4,0-2.7-0.7-3.3-1.9c-0.7-1.2-0.7-2.7,0-3.9l18.2-31.6c0.7-1.2,2-1.9,3.3-1.9h36.4
						c1.4,0,2.7,0.7,3.3,1.9c0.7,1.2,0.7,2.7,0,3.9l-18.2,31.6C61,151.5,59.8,152.3,58.4,152.3z M28.6,144.6h27.5l13.8-23.9H42.4
						L28.6,144.6z"/>
				</g>
				<g>
					<path class="st2" d="M76.6,183.8H40.1c-1.4,0-2.7-0.7-3.3-1.9l-18.2-31.6c-0.7-1.2-0.7-2.7,0-3.9s2-1.9,3.3-1.9h36.4
						c1.4,0,2.7,0.7,3.3,1.9L79.9,178c0.7,1.2,0.7,2.7,0,3.9C79.2,183.1,78,183.8,76.6,183.8z M42.4,176.1h27.5l-13.8-23.8H28.6
						L42.4,176.1z"/>
				</g>
			</g>
			<g>
				<g>
					<path class="st2" d="M76.6,120.7c-1.4,0-2.7-0.7-3.3-1.9L55,87.2c-0.7-1.2-0.7-2.7,0-3.9l18.2-31.6c1.4-2.4,5.3-2.4,6.7,0
						l18.2,31.6c0.7,1.2,0.7,2.7,0,3.9l-18.2,31.6C79.2,120,78,120.7,76.6,120.7z M62.8,85.3l13.8,23.8l13.8-23.8L76.6,61.4
						L62.8,85.3z"/>
				</g>
				<g>
					<path class="st2" d="M58.4,89.1H21.9c-1.4,0-2.7-0.7-3.3-1.9c-0.7-1.2-0.7-2.7,0-3.9l18.2-31.6c0.7-1.2,2-1.9,3.3-1.9h36.4
						c1.4,0,2.7,0.7,3.3,1.9c0.7,1.2,0.7,2.7,0,3.9L61.7,87.2C61,88.4,59.8,89.1,58.4,89.1z M28.6,81.4h27.5l13.8-23.9H42.4
						L28.6,81.4z"/>
				</g>
				<g>
					<path class="st2" d="M76.6,120.7H40.1c-1.4,0-2.7-0.7-3.3-1.9L18.6,87.2c-0.7-1.2-0.7-2.7,0-3.9c0.7-1.2,2-1.9,3.3-1.9h36.4
						c1.4,0,2.7,0.7,3.3,1.9l18.2,31.6c0.7,1.2,0.7,2.7,0,3.9C79.2,120,78,120.7,76.6,120.7z M42.4,113h27.5L56.1,89.1H28.6
						L42.4,113z"/>
				</g>
			</g>
			<g>
				<g>
					<path class="st2" d="M131.1,215.4c-1.4,0-2.7-0.7-3.3-1.9l-18.2-31.6c-0.7-1.2-0.7-2.7,0-3.9l18.2-31.6c1.4-2.4,5.3-2.4,6.7,0
						l18.2,31.6c0.7,1.2,0.7,2.7,0,3.9l-18.2,31.6C133.8,214.7,132.5,215.4,131.1,215.4z M117.4,180l13.8,23.9L145,180l-13.8-23.8
						L117.4,180z"/>
				</g>
				<g>
					<path class="st2" d="M112.9,183.8H76.5c-1.4,0-2.7-0.7-3.3-1.9c-0.7-1.2-0.7-2.7,0-3.9l18.2-31.6c0.7-1.2,2-1.9,3.3-1.9h36.4
						c1.4,0,2.7,0.7,3.3,1.9c0.7,1.2,0.7,2.7,0,3.9l-18.2,31.6C115.6,183.1,114.3,183.8,112.9,183.8z M83.1,176.1h27.5l13.8-23.8
						H96.9L83.1,176.1z"/>
				</g>
				<g>
					<path class="st2" d="M131.1,215.4H94.7c-1.4,0-2.7-0.7-3.3-1.9l-18.2-31.6c-0.7-1.2-0.7-2.7,0-3.9s2-1.9,3.3-1.9h36.4
						c1.4,0,2.7,0.7,3.3,1.9l18.2,31.6c0.7,1.2,0.7,2.7,0,3.9C133.8,214.7,132.5,215.4,131.1,215.4z M96.9,207.7h27.5l-13.8-23.9
						H83.1L96.9,207.7z"/>
				</g>
			</g>
		</g>
		<g>
			<g>
				<g>
					<polygon class="st4" points="131.1,85.3 112.9,116.9 131.1,148.4 149.4,116.9 					"/>
				</g>
				<g>
					<polygon class="st5" points="94.7,85.3 76.5,116.9 112.9,116.9 131.1,85.3 					"/>
				</g>
				<g>
					<polygon class="st6" points="76.5,116.9 112.9,116.9 131.1,148.4 94.7,148.4 					"/>
				</g>
			</g>
			<g>
				<g>
					<polygon class="st7" points="131.1,22.2 112.9,53.7 131.1,85.3 149.4,53.7 					"/>
				</g>
				<g>
					<polygon class="st8" points="94.7,22.2 76.5,53.7 112.9,53.7 131.1,22.2 					"/>
				</g>
				<g>
					<polygon class="st9" points="76.5,53.7 112.9,53.7 131.1,85.3 94.7,85.3 					"/>
				</g>
			</g>
			<g>
				<g>
					<polygon class="st4" points="185.8,116.9 167.6,148.4 185.8,180 204,148.4 					"/>
				</g>
				<g>
					<polygon class="st5" points="149.4,116.9 131.1,148.4 167.6,148.4 185.8,116.9 					"/>
				</g>
				<g>
					<polygon class="st6" points="131.1,148.4 167.6,148.4 185.8,180 149.4,180 					"/>
				</g>
			</g>
			<g>
				<g>
					<polygon class="st7" points="185.8,53.7 167.6,85.3 185.8,116.9 204,85.3 					"/>
				</g>
				<g>
					<polygon class="st8" points="149.4,53.7 131.1,85.3 167.6,85.3 185.8,53.7 					"/>
				</g>
				<g>
					<polygon class="st9" points="131.1,85.3 167.6,85.3 185.8,116.9 149.4,116.9 					"/>
				</g>
			</g>
			<g>
				<g>
					<polygon class="st7" points="76.6,116.9 58.4,148.4 76.6,180 94.8,148.4 					"/>
				</g>
				<g>
					<polygon class="st8" points="40.1,116.9 21.9,148.4 58.4,148.4 76.6,116.9 					"/>
				</g>
				<g>
					<polygon class="st9" points="21.9,148.4 58.4,148.4 76.6,180 40.1,180 					"/>
				</g>
			</g>
			<g>
				<g>
					<polygon class="st7" points="76.6,53.7 58.4,85.3 76.6,116.9 94.8,85.3 					"/>
				</g>
				<g>
					<polygon class="st8" points="40.1,53.7 21.9,85.3 58.4,85.3 76.6,53.7 					"/>
				</g>
				<g>
					<polygon class="st9" points="21.9,85.3 58.4,85.3 76.6,116.9 40.1,116.9 					"/>
				</g>
			</g>
			<g>
				<g>
					<polygon class="st4" points="131.1,148.4 112.9,180 131.1,211.5 149.4,180 					"/>
				</g>
				<g>
					<polygon class="st5" points="94.7,148.4 76.5,180 112.9,180 131.1,148.4 					"/>
				</g>
				<g>
					<polygon class="st6" points="76.5,180 112.9,180 131.1,211.5 94.7,211.5 					"/>
				</g>
			</g>
		</g>
	</g>
</g>
</svg>
