<?xml version="1.0" encoding="utf-8"?>
<!-- Generator: Adobe Illustrator 22.1.0, SVG Export Plug-In . SVG Version: 6.00 Build 0)  -->
<svg version="1.1" id="Layer_1" xmlns="http://www.w3.org/2000/svg" xmlns:xlink="http://www.w3.org/1999/xlink" x="0px" y="0px"
	 viewBox="0 0 1026 237" style="enable-background:new 0 0 1026 237;" xml:space="preserve">
<style type="text/css">
	.st0{fill:#5C5C5C;}
	.st1{enable-background:new    ;}
	.st2{fill:#FFFFFF;}
	.st3{fill:#669BE8;}
	.st4{fill:#2A7FE2;}
	.st5{fill:#3366CC;}
	.st6{fill:#E5E5E4;}
	.st7{fill:#B3B2B3;}
	.st8{fill:#808080;}
</style>
<g>
	<g>
		<g>
			<path class="st0" d="M281.8,152.8c-1.5,0-2.9-0.3-3.9-0.8c-1.6-0.8-2.4-2.3-2.8-3.5l-18.5-49.4l0,53.6h-25.3V79.8
				c0-3.6,2.3-6,5.8-6h33c3.4,0,5.8,1.6,7,4.6l16.9,49.2l17-49.1c0.5-1.4,1.3-2.5,2.5-3.4c1.1-0.9,2.6-1.3,4.5-1.3h32.6
				c3.5,0,5.8,2.4,5.8,6v72.9h-25.6V99.4l-18.5,49c-0.6,1.7-1.6,2.9-2.9,3.6c-1.1,0.5-2.4,0.8-3.8,0.8H281.8z"/>
			<path class="st0" d="M361.2,175.4v-21.3h42c1.6,0,2.7-0.3,3.2-0.8c0.6-0.7,0.9-2,0.9-3.6v-1.4h-22.9c-8.9,0-15.5-2-19.5-5.8
				c-4-3.9-6-9.7-6-17.3V91.7H383v31c0,2.6,0.5,3.8,0.8,4.1c0.1,0.1,1,0.8,3.9,0.8h18.9l0.7,1.7V91.7h24.2v59.1
				c0,3.5-0.4,6.6-1.3,9.7c-1,3.3-2.5,5.9-4.5,8c-1.9,2.1-4.5,3.8-8,5.1c-3.5,1.2-7.4,1.8-11.7,1.8H361.2z"/>
		</g>
		<g>
			<path class="st0" d="M466.6,152.7c-5.7,0-10.7-0.8-14.8-2.3c-4.3-1.6-7.8-3.8-10.4-6.6c-2.6-2.8-4.5-6.3-5.8-10.3
				c-1.2-3.8-1.7-8-1.7-12.9v-15c0-4.9,0.6-9.1,1.7-12.9c1.2-4,3.2-7.4,5.8-10.3c2.6-2.8,6-5,10.4-6.6c4.1-1.5,9.1-2.3,14.8-2.3
				h54.6c3.6,0,5.9,2.4,5.9,6v17.8l-21.6,7.9h-4.3v-8h-32.8c-1.7,0-3.1,0.2-4.3,0.5c-0.9,0.3-1.6,0.6-2.1,1.1
				c-0.5,0.5-0.8,1.2-1.1,2.3c-0.3,1.2-0.5,2.9-0.5,4.8V119c0,4.7,1,6.5,1.6,7.1c1.1,1.1,3.3,1.7,6.3,1.7H501v-12.3h0l0-0.2
				c-0.1-1.2-0.2-2-0.3-2.7l-0.1-0.3v-4.2H527v38.8c0,3.6-2.1,5.8-5.5,5.8H466.6z"/>
			<path class="st0" d="M554.8,152.8c-4.5,0-8.3-0.6-11.5-1.8c-3.2-1.1-6-2.9-8.1-5.1c-2.1-2.2-3.7-5-4.6-8.1
				c-0.9-3-1.3-6.3-1.3-9.9v-11.3c0-3.6,0.4-6.9,1.3-9.9c0.9-3.1,2.5-5.9,4.6-8.1c2.2-2.3,4.9-4.1,8.2-5.2c3.3-1.2,7.1-1.8,11.4-1.8
				h31.8c5.1,0,8.9,1.5,11.3,4.4c2.3,2.8,3.4,6.7,3.4,12.1v5.3c0,4.8-1.1,8.5-3.3,11.5c-2.4,3.2-6.2,4.8-11.4,4.8h-32.8
				c0.2,1.1,0.5,1.5,0.6,1.6c0.4,0.4,1.6,0.8,3.8,0.8h42.2v20.6H554.8z M578.3,112.7c0-0.1,0-0.1,0-0.2c0,0,0-2.1,0-2.1
				c-0.1,0-0.1,0-0.2,0h-20c-2.8,0-3.6,0.7-3.7,0.8c-0.1,0.1-0.4,0.5-0.6,1.5C553.8,112.7,578.3,112.7,578.3,112.7z M578.6,112.7
				L578.6,112.7z"/>
			<path class="st0" d="M652.3,152.8v-35c0-3.2-0.7-4.3-1-4.7c-0.6-0.6-1.9-0.9-3.7-0.9h-20.3v40.6H603V91.7h47.9
				c4.5,0,8.3,0.6,11.5,1.8c3.2,1.1,5.9,2.8,8.1,5.1c2.1,2.2,3.7,5,4.6,8.1c0.9,3,1.3,6.3,1.3,9.9v36.2H652.3z"/>
			<path class="st0" d="M703.7,152.8c-4.5,0-8.3-0.6-11.5-1.8c-3.2-1.1-6-2.9-8.1-5.1c-2.1-2.2-3.7-5-4.6-8.1
				c-0.9-3-1.3-6.3-1.3-9.9v-11.3c0-3.6,0.4-6.9,1.3-9.9c0.9-3.1,2.5-5.9,4.6-8.1c2.2-2.3,4.9-4.1,8.2-5.2c3.3-1.2,7.1-1.8,11.4-1.8
				h31.8c5.1,0,8.9,1.5,11.3,4.4c2.3,2.8,3.4,6.7,3.4,12.1v5.3c0,4.8-1.1,8.5-3.3,11.5c-2.4,3.2-6.2,4.8-11.4,4.8h-32.8
				c0.2,1.1,0.5,1.5,0.6,1.6c0.4,0.4,1.6,0.8,3.8,0.8h42.2v20.6H703.7z M727.2,112.7c0-0.1,0-0.1,0-0.2c0,0,0-2.1,0-2.1
				c-0.1,0-0.1,0-0.2,0h-20c-2.2,0-3.3,0.4-3.7,0.8c-0.1,0.1-0.4,0.5-0.6,1.5C702.7,112.7,727.2,112.7,727.2,112.7z"/>
		</g>
		<g>
			<rect x="751.9" y="130.1" class="st0" width="24.1" height="22.6"/>
			<path class="st0" d="M779.4,152.7v-61h24.1v61H779.4z M779.4,89.1V68.6h24.1v20.5H779.4z"/>
			<path class="st0" d="M856,152.8v-35c0-3.2-0.7-4.3-1-4.7c-0.6-0.6-1.9-0.9-3.7-0.9H831v40.6h-24.1V91.7h47.8
				c4.5,0,8.3,0.6,11.5,1.8c3.2,1.1,5.9,2.8,8.1,5.1c2.1,2.2,3.7,5,4.6,8.1c0.9,3,1.3,6.3,1.3,9.9v36.2H856z"/>
			<path class="st0" d="M888,152.7v-41.2h-6.5L875.8,96v-4.3H888v-3.6c0-3.8,0.4-6.7,1.2-9c0.9-2.7,2.4-4.9,4.4-6.5
				c2-1.6,4.5-2.7,7.5-3.3c2.9-0.6,6.4-0.9,10.2-0.9h10.1l5.9,14.7v4.5h-13.6c-0.6,0-1,0.1-1.2,0.1c-0.1,0.2-0.2,0.8-0.2,2v1.9h16
				v19.9h-16.1v41.2H888z"/>
			<path class="st0" d="M951.6,152.8c-4.5,0-8.3-0.6-11.5-1.8c-3.2-1.1-6-2.9-8.1-5.1c-2.1-2.2-3.7-5-4.6-8.1
				c-0.9-3-1.3-6.3-1.3-9.9v-11.3c0-3.6,0.4-6.9,1.3-9.9c0.9-3.1,2.5-5.9,4.6-8.1c2.2-2.3,4.9-4.1,8.2-5.2c3.3-1.2,7.1-1.8,11.4-1.8
				H978c4.5,0,8.3,0.6,11.5,1.8c3.2,1.1,5.9,2.8,8.1,5.1c2.1,2.2,3.7,5,4.6,8.1c0.9,3,1.3,6.3,1.3,9.9v11.3c0,3.6-0.4,6.9-1.3,9.9
				c-0.9,3.1-2.5,5.9-4.6,8.1c-2.2,2.3-4.9,4.1-8.2,5.2c-3.4,1.2-7.2,1.8-11.4,1.8H951.6z M954.9,112.2c-2.8,0-3.5,0.6-3.7,0.8
				l-0.1,0.1c-0.1,0.1-0.9,1.1-0.9,4.8v7.7c0,3.4,0.8,4.3,0.8,4.3c0.1,0.1,1,0.8,3.9,0.8l19.8-0.1c2.9,0,3.8-0.7,3.9-0.8
				c0,0,0.8-0.9,0.8-4.3v-7.7c0-3.7-0.8-4.6-0.9-4.7c-0.6-0.6-2-0.9-3.9-0.9H954.9z"/>
		</g>
	</g>
	<g>
		<g class="st1">
			<path class="st2" d="M333.7,149.7V94.9c0-1.1-0.5-1.6-1.5-1.6h-1.1c-0.9,0-1.5,0.4-1.8,1.3l-19.9,52.8c-0.3,0.9-0.8,1.6-1.4,1.9
				c-0.6,0.3-1.4,0.5-2.5,0.5h-23.7c-1.1,0-2-0.2-2.6-0.5s-1-0.9-1.4-1.9L258,94.6c-0.3-0.9-1-1.3-1.9-1.3h-1
				c-1.1,0-1.6,0.5-1.6,1.6v54.8h-19.3V79.8c0-2,0.9-3,2.8-3h33c2.1,0,3.5,0.9,4.2,2.7l17.9,52.1c0.1,0.4,0.4,0.6,1,0.6h1.8
				c0.4,0,0.7-0.2,0.8-0.6l18-52.1c0.3-0.9,0.8-1.5,1.5-2c0.6-0.5,1.5-0.7,2.7-0.7h32.6c1.9,0,2.8,1,2.8,3v69.9L333.7,149.7
				L333.7,149.7z"/>
			<path class="st2" d="M409.6,143.2h0.7V94.7h18.2v56.1c0,3.2-0.4,6.1-1.2,8.8c-0.8,2.6-2,4.9-3.8,6.8c-1.7,1.9-4,3.3-6.9,4.4
				c-2.9,1-6.4,1.6-10.6,1.6h-41.8v-15.3h39c2.6,0,4.4-0.6,5.5-1.8c1-1.2,1.6-3,1.6-5.6v-4.4h-25.9c-8.2,0-14-1.7-17.4-5
				s-5.1-8.3-5.1-15.1V94.7H380v28c0,3,0.6,5.1,1.7,6.2c1.1,1.1,3.1,1.7,6,1.7h16.9L409.6,143.2z"/>
		</g>
		<g class="st1">
			<path class="st3" d="M504.2,118.5c0-1.1-0.1-2.2-0.2-3.4c-0.1-1.2-0.2-2.2-0.4-3.1v-0.9H524v35.8c0,1.9-0.8,2.8-2.5,2.8h-54.9
				c-5.4,0-10-0.7-13.8-2.1c-3.8-1.4-6.9-3.3-9.2-5.8c-2.3-2.5-4-5.5-5.1-9.1s-1.6-7.6-1.6-12v-15c0-4.4,0.5-8.4,1.6-12
				s2.8-6.6,5.1-9.1c2.3-2.5,5.4-4.4,9.2-5.8c3.8-1.4,8.4-2.1,13.8-2.1h54.6c1.9,0,2.9,1,2.9,3v15.7l-19.1,7h-0.8v-7
				c0-0.7-0.3-1-0.9-1h-34.9c-2,0-3.7,0.2-5.1,0.6s-2.5,1-3.4,1.9s-1.5,2.1-1.9,3.6s-0.6,3.4-0.6,5.6V119c0,4.4,0.8,7.5,2.5,9.2
				s4.5,2.6,8.4,2.6h34.6c0.7,0,1.1-0.4,1.1-1.2v-11.1C504,118.5,504.2,118.5,504.2,118.5z"/>
			<path class="st3" d="M551.3,118.4h-0.7v8.5c0,3.1,0.5,5.3,1.6,6.5s3.1,1.8,6,1.8h39.2v14.6h-42.6c-4.1,0-7.5-0.5-10.4-1.6
				c-2.8-1-5.2-2.5-7-4.4s-3.1-4.2-3.9-6.9c-0.8-2.7-1.2-5.7-1.2-9v-11.3c0-3.3,0.4-6.3,1.2-9s2.1-5,3.9-6.9c1.8-1.9,4.1-3.4,7-4.4
				c2.8-1,6.3-1.6,10.4-1.6h31.8c4.2,0,7.2,1.1,9,3.3c1.8,2.2,2.7,5.6,2.7,10.2v5.3c0,4.1-0.9,7.3-2.7,9.7c-1.8,2.4-4.8,3.6-9,3.6
				h-32.2L551.3,118.4z M550.6,115.7h27.6c2.1,0,3.1-1.1,3.1-3.2v-2c0-1.1-0.3-1.9-0.8-2.4s-1.3-0.7-2.4-0.7h-20
				c-2.8,0-4.8,0.6-5.9,1.8c-1.1,1.2-1.7,3.3-1.7,6.3v0.2C550.5,115.7,550.6,115.7,550.6,115.7z"/>
			<path class="st3" d="M606,94.7h44.9c4.1,0,7.5,0.5,10.4,1.6c2.9,1,5.2,2.5,7,4.4s3.1,4.2,3.9,6.9c0.8,2.7,1.2,5.7,1.2,9v33.2
				h-18.1v-32c0-3.2-0.6-5.4-1.8-6.7s-3.2-1.9-5.9-1.9H628l-3-8h-0.7v48.6H606V94.7z"/>
			<path class="st3" d="M700.2,118.4h-0.7v8.5c0,3.1,0.5,5.3,1.6,6.5s3.1,1.8,6,1.8h39.2v14.6h-42.6c-4.1,0-7.5-0.5-10.4-1.6
				c-2.8-1-5.2-2.5-7-4.4s-3.1-4.2-3.9-6.9c-0.8-2.7-1.2-5.7-1.2-9v-11.3c0-3.3,0.4-6.3,1.2-9s2.1-5,3.9-6.9c1.8-1.9,4.1-3.4,7-4.4
				c2.8-1,6.3-1.6,10.4-1.6h31.8c4.2,0,7.2,1.1,9,3.3c1.8,2.2,2.7,5.6,2.7,10.2v5.3c0,4.1-0.9,7.3-2.7,9.7c-1.8,2.4-4.8,3.6-9,3.6
				h-32.2L700.2,118.4z M699.5,115.7h27.6c2.1,0,3.1-1.1,3.1-3.2v-2c0-1.1-0.3-1.9-0.8-2.4s-1.3-0.7-2.4-0.7h-20
				c-2.8,0-4.8,0.6-5.9,1.8c-1.1,1.2-1.7,3.3-1.7,6.3v0.2C699.4,115.7,699.5,115.7,699.5,115.7z"/>
		</g>
		<g class="st1">
			<path class="st2" d="M754.9,149.7v-16.6H773v16.6H754.9z"/>
			<path class="st2" d="M782.4,86.1V71.6h18.1v14.5H782.4z M782.4,149.7v-55h18.1v55H782.4z"/>
			<path class="st2" d="M809.8,94.7h44.9c4.1,0,7.5,0.5,10.4,1.6c2.9,1,5.2,2.5,7,4.4s3.1,4.2,3.9,6.9c0.8,2.7,1.2,5.7,1.2,9v33.2
				H859v-32c0-3.2-0.6-5.4-1.8-6.7c-1.2-1.3-3.2-1.9-5.9-1.9h-19.6l-3-8H828v48.6h-18.1V94.7H809.8z"/>
			<path class="st2" d="M925.1,108.5h-16v41.2H891v-41.2h-7.4l-4.8-13v-0.8H891v-6.6c0-3.3,0.3-6,1-8.1s1.8-3.8,3.4-5.1
				c1.6-1.3,3.6-2.2,6.2-2.7c2.6-0.5,5.8-0.8,9.6-0.8h8.1l4.9,12.3v0.9h-10.6c-1.7,0-2.9,0.4-3.5,1.2c-0.6,0.8-0.9,2.1-0.9,3.9v4.9
				h16v13.9C925.2,108.5,925.1,108.5,925.1,108.5z"/>
			<path class="st2" d="M1000.5,127.9c0,3.3-0.4,6.3-1.2,9s-2.1,5-3.9,6.9c-1.8,1.9-4.1,3.4-7,4.4s-6.3,1.6-10.4,1.6h-26.4
				c-4.1,0-7.5-0.5-10.4-1.6c-2.8-1-5.2-2.5-7-4.4s-3.1-4.2-3.9-6.9c-0.8-2.7-1.2-5.7-1.2-9v-11.3c0-3.3,0.4-6.3,1.2-9
				s2.1-5,3.9-6.9c1.8-1.9,4.1-3.4,7-4.4c2.8-1,6.3-1.6,10.4-1.6H978c4.1,0,7.5,0.5,10.4,1.6c2.9,1,5.2,2.5,7,4.4s3.1,4.2,3.9,6.9
				c0.8,2.7,1.2,5.7,1.2,9L1000.5,127.9L1000.5,127.9z M974.7,133.6c2.9,0,4.9-0.6,6-1.7c1.1-1.1,1.7-3.3,1.7-6.4v-7.7
				c0-3.3-0.6-5.6-1.8-6.8c-1.2-1.2-3.2-1.8-6-1.8h-19.7c-2.9,0-4.9,0.6-6,1.9c-1.1,1.2-1.7,3.5-1.7,6.8v7.7c0,3.1,0.6,5.3,1.7,6.4
				c1.1,1.1,3.1,1.7,6,1.7L974.7,133.6L974.7,133.6z"/>
		</g>
	</g>
</g>
<g>
	<g>
		<g>
			<g>
				<g>
					<path class="st0" d="M128.7,152.2c-1.3,0-2.6-0.7-3.3-1.9l-17.8-30.9c-0.7-1.2-0.7-2.6,0-3.8l17.8-30.9c1.3-2.3,5.2-2.3,6.5,0
						l17.8,30.9c0.7,1.2,0.7,2.6,0,3.8l-17.8,30.9C131.3,151.5,130,152.2,128.7,152.2z M115.2,117.5l13.5,23.3l13.5-23.3l-13.5-23.3
						L115.2,117.5z"/>
				</g>
				<g>
					<path class="st0" d="M110.8,121.3H75.2c-1.3,0-2.6-0.7-3.3-1.9c-0.7-1.2-0.7-2.6,0-3.8l17.8-30.9c0.7-1.2,1.9-1.9,3.3-1.9h35.7
						c1.3,0,2.6,0.7,3.3,1.9c0.7,1.2,0.7,2.6,0,3.8l-17.8,30.9C113.4,120.6,112.2,121.3,110.8,121.3z M81.7,113.8h27l13.5-23.3h-27
						L81.7,113.8z"/>
				</g>
				<g>
					<path class="st0" d="M128.7,152.2H93c-1.3,0-2.6-0.7-3.3-1.9l-17.8-30.9c-0.7-1.2-0.7-2.6,0-3.8c0.7-1.2,1.9-1.9,3.3-1.9h35.7
						c1.3,0,2.6,0.7,3.3,1.9l17.8,30.9c0.7,1.2,0.7,2.6,0,3.8S130,152.2,128.7,152.2z M95.2,144.7h27l-13.5-23.4h-27L95.2,144.7z"/>
				</g>
			</g>
			<g>
				<g>
					<path class="st0" d="M128.7,90.4c-1.3,0-2.6-0.7-3.3-1.9l-17.8-30.9c-0.7-1.2-0.7-2.6,0-3.8l17.8-30.9c1.3-2.3,5.2-2.3,6.5,0
						l17.8,30.9c0.7,1.2,0.7,2.6,0,3.8l-17.8,30.9C131.3,89.7,130,90.4,128.7,90.4z M115.2,55.7L128.7,79l13.5-23.3l-13.5-23.3
						L115.2,55.7z"/>
				</g>
				<g>
					<path class="st0" d="M110.8,59.5H75.2c-1.3,0-2.6-0.7-3.3-1.9c-0.7-1.2-0.7-2.6,0-3.8l17.8-30.9c0.7-1.2,1.9-1.9,3.3-1.9h35.7
						c1.3,0,2.6,0.7,3.3,1.9c0.7,1.2,0.7,2.6,0,3.8l-17.8,30.9C113.4,58.8,112.2,59.5,110.8,59.5z M81.7,52h27l13.5-23.3h-27
						L81.7,52z"/>
				</g>
				<g>
					<path class="st0" d="M128.7,90.4H93c-1.3,0-2.6-0.7-3.3-1.9L71.9,57.6c-0.7-1.2-0.7-2.6,0-3.8s1.9-1.9,3.3-1.9h35.7
						c1.3,0,2.6,0.7,3.3,1.9L132,84.7c0.7,1.2,0.7,2.6,0,3.8C131.3,89.7,130,90.4,128.7,90.4z M95.2,82.9h27l-13.5-23.3h-27
						L95.2,82.9z"/>
				</g>
			</g>
			<g>
				<g>
					<path class="st0" d="M182.2,183.1L182.2,183.1c-1.3,0-2.6-0.7-3.3-1.9l-17.8-30.9c-0.7-1.2-0.7-2.6,0-3.8l17.8-30.9
						c1.3-2.3,5.2-2.3,6.5,0l17.8,30.9c0.7,1.2,0.7,2.6,0,3.8l-17.8,30.9C184.8,182.4,183.5,183.1,182.2,183.1z M168.7,148.4
						l13.5,23.3l13.5-23.3l-13.5-23.3L168.7,148.4z"/>
				</g>
				<g>
					<path class="st0" d="M164.3,152.2h-35.7c-1.3,0-2.6-0.7-3.3-1.9c-0.7-1.2-0.7-2.6,0-3.8l17.8-30.9c0.7-1.2,1.9-1.9,3.3-1.9
						h35.7c1.3,0,2.6,0.7,3.3,1.9c0.7,1.2,0.7,2.6,0,3.8l-17.8,30.9C166.9,151.5,165.7,152.2,164.3,152.2z M135.2,144.7h27
						l13.5-23.4h-27L135.2,144.7z"/>
				</g>
				<g>
					<path class="st0" d="M182.2,183.1h-35.7c-1.3,0-2.6-0.7-3.3-1.9l-17.8-30.9c-0.7-1.2-0.7-2.6,0-3.8s1.9-1.9,3.3-1.9h35.7
						c1.3,0,2.6,0.7,3.3,1.9l17.8,30.9c0.7,1.2,0.7,2.6,0,3.8C184.8,182.4,183.5,183.1,182.2,183.1z M148.7,175.6h27l-13.5-23.3h-27
						L148.7,175.6z"/>
				</g>
			</g>
			<g>
				<g>
					<path class="st0" d="M182.2,121.3c-1.3,0-2.6-0.7-3.3-1.9l-17.8-30.9c-0.7-1.2-0.7-2.6,0-3.8l17.8-30.9c1.3-2.3,5.2-2.3,6.5,0
						l17.8,30.9c0.7,1.2,0.7,2.6,0,3.8l-17.8,30.9C184.8,120.6,183.5,121.3,182.2,121.3z M168.7,86.6l13.5,23.3l13.5-23.3
						l-13.5-23.3L168.7,86.6z"/>
				</g>
				<g>
					<path class="st0" d="M164.3,90.4h-35.7c-1.3,0-2.6-0.7-3.3-1.9c-0.7-1.2-0.7-2.6,0-3.8l17.8-30.9c0.7-1.2,1.9-1.9,3.3-1.9h35.7
						c1.3,0,2.6,0.7,3.3,1.9s0.7,2.6,0,3.8l-17.8,30.9C166.9,89.7,165.7,90.4,164.3,90.4z M135.2,82.9h27l13.5-23.3h-27L135.2,82.9z
						"/>
				</g>
				<g>
					<path class="st0" d="M182.2,121.3h-35.7c-1.3,0-2.6-0.7-3.3-1.9l-17.8-30.9c-0.7-1.2-0.7-2.6,0-3.8c0.7-1.2,1.9-1.9,3.3-1.9
						h35.7c1.3,0,2.6,0.7,3.3,1.9l17.8,30.9c0.7,1.2,0.7,2.6,0,3.8C184.8,120.6,183.5,121.3,182.2,121.3z M148.7,113.8h27
						l-13.5-23.3h-27L148.7,113.8z"/>
				</g>
			</g>
			<g>
				<g>
					<path class="st0" d="M75.3,183.1L75.3,183.1c-1.3,0-2.6-0.7-3.3-1.9l-17.8-30.9c-0.7-1.2-0.7-2.6,0-3.8L72,115.6
						c1.3-2.3,5.2-2.3,6.5,0l17.8,30.9c0.7,1.2,0.7,2.6,0,3.8l-17.8,30.9C77.9,182.4,76.6,183.1,75.3,183.1z M61.8,148.4l13.5,23.3
						l13.5-23.3l-13.5-23.3L61.8,148.4z"/>
				</g>
				<g>
					<path class="st0" d="M57.4,152.2H21.8c-1.3,0-2.6-0.7-3.3-1.9c-0.7-1.2-0.7-2.6,0-3.8l17.8-30.9c0.7-1.2,1.9-1.9,3.3-1.9h35.7
						c1.3,0,2.6,0.7,3.3,1.9c0.7,1.2,0.7,2.6,0,3.8l-17.8,30.9C60,151.5,58.8,152.2,57.4,152.2z M28.3,144.7h27l13.5-23.4h-27
						L28.3,144.7z"/>
				</g>
				<g>
					<path class="st0" d="M75.3,183.1H39.6c-1.3,0-2.6-0.7-3.3-1.9l-17.8-30.9c-0.7-1.2-0.7-2.6,0-3.8s1.9-1.9,3.3-1.9h35.7
						c1.3,0,2.6,0.7,3.3,1.9l17.8,30.9c0.7,1.2,0.7,2.6,0,3.8C77.9,182.4,76.6,183.1,75.3,183.1z M41.8,175.6h27l-13.5-23.3h-27
						L41.8,175.6z"/>
				</g>
			</g>
			<g>
				<g>
					<path class="st0" d="M75.3,121.3c-1.3,0-2.6-0.7-3.3-1.9L54.2,88.5c-0.7-1.2-0.7-2.6,0-3.8L72,53.8c1.3-2.3,5.2-2.3,6.5,0
						l17.8,30.9c0.7,1.2,0.7,2.6,0,3.8l-17.8,30.9C77.9,120.6,76.6,121.3,75.3,121.3z M61.8,86.6L75.3,110l13.5-23.3L75.3,63.3
						L61.8,86.6z"/>
				</g>
				<g>
					<path class="st0" d="M57.4,90.4H21.8c-1.3,0-2.6-0.7-3.3-1.9c-0.7-1.2-0.7-2.6,0-3.8l17.8-30.9c0.7-1.2,1.9-1.9,3.3-1.9h35.7
						c1.3,0,2.6,0.7,3.3,1.9c0.7,1.2,0.7,2.6,0,3.8L60.7,88.5C60,89.7,58.8,90.4,57.4,90.4z M28.3,82.9h27l13.5-23.3h-27L28.3,82.9z
						"/>
				</g>
				<g>
					<path class="st0" d="M75.3,121.3H39.6c-1.3,0-2.6-0.7-3.3-1.9L18.5,88.5c-0.7-1.2-0.7-2.6,0-3.8c0.7-1.2,1.9-1.9,3.3-1.9h35.7
						c1.3,0,2.6,0.7,3.3,1.9l17.8,30.9c0.7,1.2,0.7,2.6,0,3.8C77.9,120.6,76.6,121.3,75.3,121.3z M41.8,113.8h27L55.3,90.4h-27
						L41.8,113.8z"/>
				</g>
			</g>
			<g>
				<g>
					<path class="st0" d="M128.7,214c-1.3,0-2.6-0.7-3.3-1.9l-17.8-30.9c-0.7-1.2-0.7-2.6,0-3.8l17.8-30.9c1.3-2.3,5.2-2.3,6.5,0
						l17.8,30.9c0.7,1.2,0.7,2.6,0,3.8l-17.8,30.9C131.3,213.3,130,214,128.7,214z M115.2,179.3l13.5,23.3l13.5-23.3L128.7,156
						L115.2,179.3z"/>
				</g>
				<g>
					<path class="st0" d="M110.8,183.1H75.2c-1.3,0-2.6-0.7-3.3-1.9c-0.7-1.2-0.7-2.6,0-3.8l17.8-30.9c0.7-1.2,1.9-1.9,3.3-1.9h35.7
						c1.3,0,2.6,0.7,3.3,1.9s0.7,2.6,0,3.8l-17.8,30.9C113.4,182.4,112.2,183.1,110.8,183.1z M81.7,175.6h27l13.5-23.3h-27
						L81.7,175.6z"/>
				</g>
				<g>
					<path class="st0" d="M128.7,214H93c-1.3,0-2.6-0.7-3.3-1.9l-17.8-30.9c-0.7-1.2-0.7-2.6,0-3.8s1.9-1.9,3.3-1.9h35.7
						c1.3,0,2.6,0.7,3.3,1.9l17.8,30.9c0.7,1.2,0.7,2.6,0,3.8S130,214,128.7,214z M95.2,206.4h27l-13.5-23.3h-27L95.2,206.4z"/>
				</g>
			</g>
		</g>
		<g>
			<g>
				<polygon class="st3" points="128.7,86.6 110.8,117.5 128.7,148.4 146.5,117.5 				"/>
				<polygon class="st4" points="93,86.6 75.2,117.5 110.8,117.5 128.7,86.6 				"/>
				<polygon class="st5" points="75.2,117.5 110.8,117.5 128.7,148.4 93,148.4 				"/>
			</g>
			<g>
				<polygon class="st3" points="128.7,24.8 110.8,55.7 128.7,86.6 146.5,55.7 				"/>
				<polygon class="st4" points="93,24.8 75.2,55.7 110.8,55.7 128.7,24.8 				"/>
				<polygon class="st5" points="75.2,55.7 110.8,55.7 128.7,86.6 93,86.6 				"/>
			</g>
			<g>
				<polygon class="st6" points="182.2,117.5 164.3,148.4 182.2,179.3 200,148.4 				"/>
				<polygon class="st7" points="146.5,117.5 128.7,148.4 164.3,148.4 182.2,117.5 				"/>
				<polygon class="st8" points="128.7,148.4 164.3,148.4 182.2,179.3 146.5,179.3 				"/>
			</g>
			<g>
				<polygon class="st3" points="182.2,55.7 164.3,86.6 182.2,117.5 200,86.6 				"/>
				<polygon class="st4" points="146.5,55.7 128.7,86.6 164.3,86.6 182.2,55.7 				"/>
				<polygon class="st5" points="128.7,86.6 164.3,86.6 182.2,117.5 146.5,117.5 				"/>
			</g>
			<g>
				<polygon class="st6" points="75.3,117.5 57.5,148.4 75.3,179.3 93.1,148.4 				"/>
				<polygon class="st7" points="39.6,117.5 21.8,148.4 57.5,148.4 75.3,117.5 				"/>
				<polygon class="st8" points="21.8,148.4 57.5,148.4 75.3,179.3 39.6,179.3 				"/>
			</g>
			<g>
				<polygon class="st6" points="75.3,55.7 57.5,86.6 75.3,117.5 93.1,86.6 				"/>
				<polygon class="st7" points="39.6,55.7 21.8,86.6 57.5,86.6 75.3,55.7 				"/>
				<polygon class="st8" points="21.8,86.6 57.5,86.6 75.3,117.5 39.6,117.5 				"/>
			</g>
			<g>
				<polygon class="st6" points="128.7,148.4 110.8,179.3 128.7,210.2 146.5,179.3 				"/>
				<polygon class="st7" points="93,148.4 75.2,179.3 110.8,179.3 128.7,148.4 				"/>
				<polygon class="st8" points="75.2,179.3 110.8,179.3 128.7,210.2 93,210.2 				"/>
			</g>
		</g>
	</g>
</g>
</svg>
