<?xml version="1.0" encoding="utf-8"?>
<!-- Generator: Adobe Illustrator 23.0.1, SVG Export Plug-In . SVG Version: 6.00 Build 0)  -->
<svg version="1.1" id="Layer_1" xmlns="http://www.w3.org/2000/svg" xmlns:xlink="http://www.w3.org/1999/xlink" x="0px" y="0px"
	 viewBox="0 0 400 400" style="enable-background:new 0 0 400 400;" xml:space="preserve">
<style type="text/css">
	.st0{fill:#FFFFFF;}
</style>
<g>
	<rect width="400" height="400"/>
</g>
<g>
	<g>
		<path class="st0" d="M101.05,58.01h141.25c30.76,0,53.8,7.32,69.12,21.95c15.32,14.63,22.98,35.45,22.98,62.46
			c0,27.76-8.35,49.46-25.04,65.09c-16.69,15.63-42.18,23.45-76.44,23.45h-46.52V333h-85.35V58.01z M186.39,175.25h20.82
			c16.38,0,27.88-2.84,34.51-8.53c6.63-5.69,9.94-12.97,9.94-21.85c0-8.63-2.88-15.94-8.63-21.95c-5.75-6-16.57-9-32.45-9h-24.2
			V175.25z"/>
	</g>
</g>
</svg>
