<?xml version="1.0" standalone="no"?>
<!DOCTYPE svg PUBLIC "-//W3C//DTD SVG 20010904//EN"
 "http://www.w3.org/TR/2001/REC-SVG-20010904/DTD/svg10.dtd">
<svg version="1.0" xmlns="http://www.w3.org/2000/svg"
 width="700.000000pt" height="700.000000pt" viewBox="0 0 700.000000 700.000000"
 preserveAspectRatio="xMidYMid meet">
<metadata>
Created by potrace 1.11, written by Peter Selinger 2001-2013
</metadata>
<g transform="translate(0.000000,700.000000) scale(0.100000,-0.100000)"
fill="#000000" stroke="none">
<path d="M0 3500 l0 -3500 3500 0 3500 0 0 3500 0 3500 -3500 0 -3500 0 0
-3500z m4675 2452 c213 -39 347 -82 505 -164 436 -225 670 -672 670 -1278 0
-774 -379 -1293 -1073 -1471 -259 -66 -426 -79 -1018 -79 l-499 0 0 -895 0
-895 -745 0 -745 0 0 2405 0 2406 1393 -3 c1383 -4 1393 -4 1512 -26z"/>
<path d="M3260 4470 l0 -540 199 0 c476 0 671 47 810 195 97 105 131 193 131
345 0 153 -49 277 -147 375 -127 127 -302 164 -775 165 l-218 0 0 -540z"/>
</g>
</svg>
