<?xml version="1.0" encoding="utf-8"?>
<!-- Generator: Adobe Illustrator 23.0.1, SVG Export Plug-In . SVG Version: 6.00 Build 0)  -->
<svg version="1.1" id="Layer_1" xmlns="http://www.w3.org/2000/svg" xmlns:xlink="http://www.w3.org/1999/xlink" x="0px" y="0px"
	 viewBox="0 0 400 400" style="enable-background:new 0 0 400 400;" xml:space="preserve">
<style type="text/css">
	.st0{fill:#6C757D;}
</style>
<g>
	<path class="st0" d="M291.22,42l91.22,158l-91.22,158H108.78L17.56,200l91.22-158H291.22 M184.1,237.18h29.44
		c1.57,0,3.84-0.57,5.75-3.27c1.3-1.84,1.96-4.13,1.96-6.8V119.49c0-2.48-0.65-4.7-1.92-6.61c-1.9-2.86-4.2-3.46-5.79-3.46H184.1
		c-1.59,0-3.89,0.6-5.79,3.46c-1.27,1.91-1.92,4.13-1.92,6.61v107.63c0,2.67,0.66,4.95,1.96,6.79
		C180.26,236.61,182.53,237.18,184.1,237.18 M184.1,286.28h30.62c1.59,0,3.89-0.6,5.79-3.46c1.27-1.91,1.92-4.13,1.92-6.61v-21.67
		c0-2.48-0.64-4.7-1.92-6.61c-1.9-2.86-4.2-3.46-5.79-3.46H184.1c-1.59,0-3.89,0.6-5.79,3.46c-1.27,1.91-1.92,4.13-1.92,6.61v21.67
		c0,2.48,0.65,4.7,1.92,6.61C180.21,285.68,182.51,286.28,184.1,286.28 M292.95,39H107.05L14.09,200l92.95,161h185.91l92.95-161
		L292.95,39L292.95,39z M184.1,234.18c-1.26,0-2.36-0.67-3.3-2c-0.94-1.33-1.41-3.02-1.41-5.06V119.49c0-1.88,0.47-3.53,1.41-4.94
		c0.94-1.41,2.04-2.12,3.3-2.12h29.44c1.26,0,2.36,0.71,3.3,2.12c0.94,1.41,1.41,3.06,1.41,4.94v107.63c0,2.04-0.47,3.73-1.41,5.06
		c-0.94,1.34-2.04,2-3.3,2H184.1L184.1,234.18z M184.1,283.28c-1.26,0-2.36-0.71-3.3-2.12c-0.94-1.41-1.41-3.06-1.41-4.95v-21.67
		c0-1.88,0.47-3.53,1.41-4.94c0.94-1.41,2.04-2.12,3.3-2.12h30.62c1.26,0,2.36,0.71,3.3,2.12c0.94,1.41,1.41,3.06,1.41,4.94v21.67
		c0,1.88-0.47,3.53-1.41,4.95c-0.94,1.41-2.04,2.12-3.3,2.12H184.1L184.1,283.28z"/>
</g>
</svg>
